%TF.GenerationSoftware,Altium Limited,Altium Designer,26.2.0 (7)*%
G04 Layer_Color=2752767*
%FSLAX45Y45*%
%MOMM*%
%TF.SameCoordinates,3DE98A4C-37D3-4DC4-9310-D33B0FF0074B*%
%TF.FilePolarity,Positive*%
%TF.FileFunction,Drawing*%
%TF.Part,Single*%
G01*
G75*
%TA.AperFunction,NonConductor*%
%ADD72C,0.12700*%
D72*
X4279273Y3795387D02*
X4304673Y3846187D01*
X4279273Y3896987D01*
X4330073Y3871587D01*
X4380873Y3896987D01*
X4355473Y3846187D01*
X4380873Y3795387D01*
X4330073Y3820787D01*
X4279273Y3795387D01*
X4191000Y1770380D02*
X4216400Y1795780D01*
X4241800D01*
X4216400Y1821180D01*
X4241800Y1846580D01*
X4216400D01*
X4191000Y1871980D01*
X4165600Y1846580D01*
X4140200D01*
X4165600Y1821180D01*
X4140200Y1795780D01*
X4165600D01*
X4191000Y1770380D01*
X4876800Y2308860D02*
X4902200Y2334260D01*
X4927600D01*
X4902200Y2359660D01*
X4927600Y2385060D01*
X4902200D01*
X4876800Y2410460D01*
X4851400Y2385060D01*
X4826000D01*
X4851400Y2359660D01*
X4826000Y2334260D01*
X4851400D01*
X4876800Y2308860D01*
X3865880Y5039360D02*
X3891280Y5090160D01*
X3865880Y5140960D01*
X3916680Y5115560D01*
X3967480Y5140960D01*
X3942080Y5090160D01*
X3967480Y5039360D01*
X3916680Y5064760D01*
X3865880Y5039360D01*
X4467860Y5300980D02*
X4493260Y5351780D01*
X4467860Y5402580D01*
X4518660Y5377180D01*
X4569460Y5402580D01*
X4544060Y5351780D01*
X4569460Y5300980D01*
X4518660Y5326380D01*
X4467860Y5300980D01*
X3713480Y1414780D02*
X3738880Y1440180D01*
X3764280D01*
X3738880Y1465580D01*
X3764280Y1490980D01*
X3738880D01*
X3713480Y1516380D01*
X3688080Y1490980D01*
X3662680D01*
X3688080Y1465580D01*
X3662680Y1440180D01*
X3688080D01*
X3713480Y1414780D01*
X3675380Y1206500D02*
X3700780Y1231900D01*
X3726180D01*
X3700780Y1257300D01*
X3726180Y1282700D01*
X3700780D01*
X3675380Y1308100D01*
X3649980Y1282700D01*
X3624580D01*
X3649980Y1257300D01*
X3624580Y1231900D01*
X3649980D01*
X3675380Y1206500D01*
X8536940Y3888740D02*
X8562340Y3914140D01*
X8587740D01*
X8562340Y3939540D01*
X8587740Y3964940D01*
X8562340D01*
X8536940Y3990340D01*
X8511540Y3964940D01*
X8486140D01*
X8511540Y3939540D01*
X8486140Y3914140D01*
X8511540D01*
X8536940Y3888740D01*
X5882747Y3479800D02*
X5908147Y3530600D01*
X5882747Y3581400D01*
X5933547Y3556000D01*
X5984347Y3581400D01*
X5958947Y3530600D01*
X5984347Y3479800D01*
X5933547Y3505200D01*
X5882747Y3479800D01*
X8425180Y3215640D02*
X8450580Y3241040D01*
X8475980D01*
X8450580Y3266440D01*
X8475980Y3291840D01*
X8450580D01*
X8425180Y3317240D01*
X8399780Y3291840D01*
X8374380D01*
X8399780Y3266440D01*
X8374380Y3241040D01*
X8399780D01*
X8425180Y3215640D01*
X5433060Y3281680D02*
X5458460Y3307080D01*
X5483860D01*
X5458460Y3332480D01*
X5483860Y3357880D01*
X5458460D01*
X5433060Y3383280D01*
X5407660Y3357880D01*
X5382260D01*
X5407660Y3332480D01*
X5382260Y3307080D01*
X5407660D01*
X5433060Y3281680D01*
X5295900Y3268980D02*
X5321300Y3294380D01*
X5346700D01*
X5321300Y3319780D01*
X5346700Y3345180D01*
X5321300D01*
X5295900Y3370580D01*
X5270500Y3345180D01*
X5245100D01*
X5270500Y3319780D01*
X5245100Y3294380D01*
X5270500D01*
X5295900Y3268980D01*
X4526280Y4142740D02*
X4551680Y4193540D01*
X4526280Y4244340D01*
X4577080Y4218940D01*
X4627880Y4244340D01*
X4602480Y4193540D01*
X4627880Y4142740D01*
X4577080Y4168140D01*
X4526280Y4142740D01*
X7965440Y2654300D02*
X7990840Y2679700D01*
X8016240D01*
X7990840Y2705100D01*
X8016240Y2730500D01*
X7990840D01*
X7965440Y2755900D01*
X7940040Y2730500D01*
X7914640D01*
X7940040Y2705100D01*
X7914640Y2679700D01*
X7940040D01*
X7965440Y2654300D01*
X4147820Y4782820D02*
X4173220Y4833620D01*
X4147820Y4884420D01*
X4198620Y4859020D01*
X4249420Y4884420D01*
X4224020Y4833620D01*
X4249420Y4782820D01*
X4198620Y4808220D01*
X4147820Y4782820D01*
X4142740Y4533900D02*
X4168140Y4584700D01*
X4142740Y4635500D01*
X4193540Y4610100D01*
X4244340Y4635500D01*
X4218940Y4584700D01*
X4244340Y4533900D01*
X4193540Y4559300D01*
X4142740Y4533900D01*
X2763817Y4221183D02*
X2789217Y4271983D01*
X2763817Y4322783D01*
X2814617Y4297383D01*
X2865417Y4322783D01*
X2840017Y4271983D01*
X2865417Y4221183D01*
X2814617Y4246583D01*
X2763817Y4221183D01*
X1153160Y4008120D02*
X1178560Y4033520D01*
X1203960D01*
X1178560Y4058920D01*
X1203960Y4084320D01*
X1178560D01*
X1153160Y4109720D01*
X1127760Y4084320D01*
X1102360D01*
X1127760Y4058920D01*
X1102360Y4033520D01*
X1127760D01*
X1153160Y4008120D01*
X2603500Y3244767D02*
X2628900Y3295567D01*
X2603500Y3346367D01*
X2654300Y3320967D01*
X2705100Y3346367D01*
X2679700Y3295567D01*
X2705100Y3244767D01*
X2654300Y3270167D01*
X2603500Y3244767D01*
X3992880Y1617980D02*
X4018280Y1643380D01*
X4043680D01*
X4018280Y1668780D01*
X4043680Y1694180D01*
X4018280D01*
X3992880Y1719580D01*
X3967480Y1694180D01*
X3942080D01*
X3967480Y1668780D01*
X3942080Y1643380D01*
X3967480D01*
X3992880Y1617980D01*
X3807460Y3004820D02*
X3832860Y3030220D01*
X3858260D01*
X3832860Y3055620D01*
X3858260Y3081020D01*
X3832860D01*
X3807460Y3106420D01*
X3782060Y3081020D01*
X3756660D01*
X3782060Y3055620D01*
X3756660Y3030220D01*
X3782060D01*
X3807460Y3004820D01*
X2994000Y2761640D02*
X3019400Y2812440D01*
X2994000Y2863240D01*
X3044800Y2837840D01*
X3095600Y2863240D01*
X3070200Y2812440D01*
X3095600Y2761640D01*
X3044800Y2787040D01*
X2994000Y2761640D01*
X3271520Y2451100D02*
X3296920Y2476500D01*
X3322320D01*
X3296920Y2501900D01*
X3322320Y2527300D01*
X3296920D01*
X3271520Y2552700D01*
X3246120Y2527300D01*
X3220720D01*
X3246120Y2501900D01*
X3220720Y2476500D01*
X3246120D01*
X3271520Y2451100D01*
X2603500Y2374900D02*
X2628900Y2425700D01*
X2603500Y2476500D01*
X2654300Y2451100D01*
X2705100Y2476500D01*
X2679700Y2425700D01*
X2705100Y2374900D01*
X2654300Y2400300D01*
X2603500Y2374900D01*
%TF.MD5,29f21098e0a94249720069f7eeb4cc57*%
M02*
