%TF.GenerationSoftware,Altium Limited,Altium Designer,26.2.0 (7)*%
G04 Layer_Color=8388736*
%FSLAX45Y45*%
%MOMM*%
%TF.SameCoordinates,3DE98A4C-37D3-4DC4-9310-D33B0FF0074B*%
%TF.FilePolarity,Negative*%
%TF.FileFunction,Soldermask,Top*%
%TF.Part,Single*%
G01*
G75*
%TA.AperFunction,SMDPad,CuDef*%
G04:AMPARAMS|DCode=10|XSize=1.00429mm|YSize=3.18213mm|CornerRadius=0.43687mm|HoleSize=0mm|Usage=FLASHONLY|Rotation=270.000|XOffset=0mm|YOffset=0mm|HoleType=Round|Shape=RoundedRectangle|*
%AMROUNDEDRECTD10*
21,1,1.00429,2.30840,0,0,270.0*
21,1,0.13056,3.18213,0,0,270.0*
1,1,0.87373,-1.15420,-0.06528*
1,1,0.87373,-1.15420,0.06528*
1,1,0.87373,1.15420,0.06528*
1,1,0.87373,1.15420,-0.06528*
%
%ADD10ROUNDEDRECTD10*%
G04:AMPARAMS|DCode=11|XSize=1.00429mm|YSize=0.87213mm|CornerRadius=0.43606mm|HoleSize=0mm|Usage=FLASHONLY|Rotation=270.000|XOffset=0mm|YOffset=0mm|HoleType=Round|Shape=RoundedRectangle|*
%AMROUNDEDRECTD11*
21,1,1.00429,0.00000,0,0,270.0*
21,1,0.13216,0.87213,0,0,270.0*
1,1,0.87213,0.00000,-0.06608*
1,1,0.87213,0.00000,0.06608*
1,1,0.87213,0.00000,0.06608*
1,1,0.87213,0.00000,-0.06608*
%
%ADD11ROUNDEDRECTD11*%
%ADD12R,0.87213X1.00429*%
%ADD13R,2.20000X4.20000*%
%ADD14R,1.38000X0.45000*%
%ADD16R,2.08000X3.81000*%
%ADD18R,1.15814X1.01213*%
%ADD25R,1.01213X1.15814*%
%ADD27R,0.91213X0.95814*%
%ADD29R,0.75814X0.81213*%
%ADD33R,0.35000X0.37500*%
%ADD34R,0.37500X0.35000*%
%ADD35R,1.80000X1.20000*%
%ADD36R,1.10606X0.95822*%
G04:AMPARAMS|DCode=37|XSize=1.55748mm|YSize=0.74248mm|CornerRadius=0.37124mm|HoleSize=0mm|Usage=FLASHONLY|Rotation=0.000|XOffset=0mm|YOffset=0mm|HoleType=Round|Shape=RoundedRectangle|*
%AMROUNDEDRECTD37*
21,1,1.55748,0.00000,0,0,0.0*
21,1,0.81501,0.74248,0,0,0.0*
1,1,0.74247,0.40750,0.00000*
1,1,0.74247,-0.40750,0.00000*
1,1,0.74247,-0.40750,0.00000*
1,1,0.74247,0.40750,0.00000*
%
%ADD37ROUNDEDRECTD37*%
%ADD38R,1.55748X0.74248*%
%ADD39R,1.00000X1.00000*%
%ADD40R,1.55000X1.42500*%
%ADD41R,1.90000X1.00000*%
%ADD42R,1.90000X1.80000*%
%ADD43R,1.30000X1.65000*%
%ADD44R,11.43000X8.89000*%
%TA.AperFunction,ComponentPad*%
%ADD59R,1.40000X1.40000*%
%ADD60C,1.40000*%
%ADD62R,1.40000X1.40000*%
%TA.AperFunction,SMDPad,CuDef*%
%ADD73R,1.10320X1.00320*%
%ADD74R,1.00320X0.55320*%
%ADD75R,1.15320X1.15320*%
%ADD76R,1.67820X0.50320*%
G04:AMPARAMS|DCode=77|XSize=1.0032mm|YSize=1.2032mm|CornerRadius=0.2016mm|HoleSize=0mm|Usage=FLASHONLY|Rotation=0.000|XOffset=0mm|YOffset=0mm|HoleType=Round|Shape=RoundedRectangle|*
%AMROUNDEDRECTD77*
21,1,1.00320,0.80000,0,0,0.0*
21,1,0.60000,1.20320,0,0,0.0*
1,1,0.40320,0.30000,-0.40000*
1,1,0.40320,-0.30000,-0.40000*
1,1,0.40320,-0.30000,0.40000*
1,1,0.40320,0.30000,0.40000*
%
%ADD77ROUNDEDRECTD77*%
%ADD78R,0.55320X1.05320*%
%ADD79R,1.20320X1.00320*%
G04:AMPARAMS|DCode=80|XSize=0.8032mm|YSize=0.9032mm|CornerRadius=0.1766mm|HoleSize=0mm|Usage=FLASHONLY|Rotation=90.000|XOffset=0mm|YOffset=0mm|HoleType=Round|Shape=RoundedRectangle|*
%AMROUNDEDRECTD80*
21,1,0.80320,0.55000,0,0,90.0*
21,1,0.45000,0.90320,0,0,90.0*
1,1,0.35320,0.27500,0.22500*
1,1,0.35320,0.27500,-0.22500*
1,1,0.35320,-0.27500,-0.22500*
1,1,0.35320,-0.27500,0.22500*
%
%ADD80ROUNDEDRECTD80*%
%ADD81R,0.50320X1.67820*%
%ADD82R,2.90320X2.80320*%
%ADD83O,0.75320X1.45320*%
%ADD84R,1.05320X1.10320*%
%ADD85R,1.15320X1.15320*%
%ADD86R,1.00320X1.20320*%
G04:AMPARAMS|DCode=87|XSize=0.9632mm|YSize=0.8636mm|CornerRadius=0.18415mm|HoleSize=0mm|Usage=FLASHONLY|Rotation=270.000|XOffset=0mm|YOffset=0mm|HoleType=Round|Shape=RoundedRectangle|*
%AMROUNDEDRECTD87*
21,1,0.96320,0.49530,0,0,270.0*
21,1,0.59490,0.86360,0,0,270.0*
1,1,0.36830,-0.24765,-0.29745*
1,1,0.36830,-0.24765,0.29745*
1,1,0.36830,0.24765,0.29745*
1,1,0.36830,0.24765,-0.29745*
%
%ADD87ROUNDEDRECTD87*%
%TA.AperFunction,ComponentPad*%
%ADD88C,1.70320*%
%ADD89R,1.70320X1.70320*%
%TA.AperFunction,ViaPad*%
%ADD90C,0.80320*%
%ADD91C,1.10320*%
%ADD92C,0.90320*%
%ADD93C,0.75320*%
%ADD94C,0.70320*%
D10*
X7437520Y1505080D02*
D03*
D11*
Y2164080D02*
D03*
X7208520D02*
D03*
D12*
X7666520D02*
D03*
D13*
X1254760Y3530600D02*
D03*
Y2800600D02*
D03*
D14*
X8588440Y3007220D02*
D03*
Y3267220D02*
D03*
Y3202220D02*
D03*
Y3137220D02*
D03*
Y3072220D02*
D03*
D16*
X8534400Y4203700D02*
D03*
X1155700Y4330700D02*
D03*
X8026400Y4203700D02*
D03*
X647700Y4330700D02*
D03*
D18*
X5825639Y3530600D02*
D03*
X7385199Y2651760D02*
D03*
Y2402840D02*
D03*
X7219801D02*
D03*
Y2651760D02*
D03*
X5660241Y3530600D02*
D03*
D25*
X7696200Y2734161D02*
D03*
X3271520Y2631141D02*
D03*
X2654300Y2544781D02*
D03*
X3271520Y2796540D02*
D03*
X7696200Y2899559D02*
D03*
X2654300Y2710180D02*
D03*
D27*
X7731760Y1176981D02*
D03*
Y1322379D02*
D03*
D29*
X4281501Y4585774D02*
D03*
X4406900D02*
D03*
D33*
X4191800Y1524000D02*
D03*
X4241800D02*
D03*
X4191800Y1371500D02*
D03*
X4241800D02*
D03*
D34*
X4140550Y1472750D02*
D03*
X4293050Y1372750D02*
D03*
Y1422750D02*
D03*
Y1522750D02*
D03*
X4140550D02*
D03*
X4293050Y1472750D02*
D03*
X4140550Y1422750D02*
D03*
Y1372750D02*
D03*
D35*
X2644800Y3168000D02*
D03*
X3044800Y2928000D02*
D03*
Y3168000D02*
D03*
X2644800Y2928000D02*
D03*
D36*
X3800855Y1259160D02*
D03*
X3936072D02*
D03*
D37*
X7523337Y4927600D02*
D03*
X1778286Y5082540D02*
D03*
D38*
X7183263Y4927600D02*
D03*
X2118360Y5082540D02*
D03*
D39*
X4495800Y1187325D02*
D03*
Y1027325D02*
D03*
X5168651Y4635500D02*
D03*
X4943225Y4639300D02*
D03*
X4864100Y1957060D02*
D03*
Y1797060D02*
D03*
X4943225Y4479300D02*
D03*
X5168651Y4475500D02*
D03*
D40*
X8596940Y3385970D02*
D03*
Y2888470D02*
D03*
D41*
X8854440Y3292220D02*
D03*
D42*
Y3022220D02*
D03*
D43*
Y3474720D02*
D03*
Y2799720D02*
D03*
D44*
X8280400Y5346700D02*
D03*
X901700Y5473700D02*
D03*
D59*
X266700Y2298700D02*
D03*
X269240Y3505200D02*
D03*
X8615680Y2369820D02*
D03*
D60*
X266700Y2048700D02*
D03*
X269240Y3255200D02*
D03*
X6000400Y5619900D02*
D03*
X4642200Y336400D02*
D03*
X1036700Y469900D02*
D03*
X8615680Y2119820D02*
D03*
X3181700Y336400D02*
D03*
X2931700D02*
D03*
X2681700D02*
D03*
X4392200D02*
D03*
X4142200D02*
D03*
X1818100Y5708800D02*
D03*
X7508201Y5556100D02*
D03*
X2719800Y5708800D02*
D03*
X1536700Y469900D02*
D03*
X1286700D02*
D03*
X6500400Y5619900D02*
D03*
X6250400D02*
D03*
D62*
X3892200Y336400D02*
D03*
X6750400Y5619900D02*
D03*
X2431700Y336400D02*
D03*
X2068100Y5708800D02*
D03*
X7258201Y5556100D02*
D03*
X2969800Y5708800D02*
D03*
X1786700Y469900D02*
D03*
D73*
X8326515Y2910840D02*
D03*
X8156515D02*
D03*
D74*
X4697800Y4833700D02*
D03*
X4297800D02*
D03*
Y5083700D02*
D03*
X4697800Y4883700D02*
D03*
Y4933700D02*
D03*
Y4983700D02*
D03*
Y5033700D02*
D03*
Y5083700D02*
D03*
X4297800Y4883700D02*
D03*
Y4933700D02*
D03*
Y4983700D02*
D03*
Y5033700D02*
D03*
D75*
X5432060Y3449320D02*
D03*
X4865100Y2475874D02*
D03*
X4281900Y5407660D02*
D03*
X4022374Y5088200D02*
D03*
X4343400Y3733800D02*
D03*
X3862800Y3380075D02*
D03*
X2822940Y4165600D02*
D03*
X3438620Y3131820D02*
D03*
X3828875Y1460500D02*
D03*
X3953875D02*
D03*
X4990100Y2475874D02*
D03*
X5307060Y3449320D02*
D03*
X4218400Y3733800D02*
D03*
X3987800Y3380075D02*
D03*
X4147374Y5088200D02*
D03*
X4406900Y5407660D02*
D03*
X2947940Y4165600D02*
D03*
X3563620Y3131820D02*
D03*
D76*
X5033900Y3323800D02*
D03*
X4186300Y3023800D02*
D03*
X5033900Y3373800D02*
D03*
Y3273800D02*
D03*
Y3223800D02*
D03*
Y3173800D02*
D03*
Y3123800D02*
D03*
Y3073800D02*
D03*
Y3023800D02*
D03*
Y2973800D02*
D03*
Y2923800D02*
D03*
Y2873800D02*
D03*
Y2823800D02*
D03*
X4186300D02*
D03*
Y2873800D02*
D03*
Y2923800D02*
D03*
Y2973800D02*
D03*
Y3073800D02*
D03*
Y3123800D02*
D03*
Y3173800D02*
D03*
Y3223800D02*
D03*
Y3273800D02*
D03*
Y3323800D02*
D03*
Y3373800D02*
D03*
D77*
X4624000Y5361940D02*
D03*
X7357180Y2915920D02*
D03*
X7207180D02*
D03*
X4774000Y5361940D02*
D03*
X7969180Y1323340D02*
D03*
X8119180D02*
D03*
D78*
X4422800Y5156200D02*
D03*
X4522800D02*
D03*
X4572800D02*
D03*
X4622800Y4761200D02*
D03*
Y5156200D02*
D03*
X4472800D02*
D03*
X4372800D02*
D03*
X4572800Y4761200D02*
D03*
X4522800D02*
D03*
X4472800D02*
D03*
X4422800D02*
D03*
X4372800D02*
D03*
D79*
X4572000Y4114800D02*
D03*
X8371840Y1177220D02*
D03*
X3566160Y2758440D02*
D03*
X8371840Y1327220D02*
D03*
X4572000Y3964800D02*
D03*
X3566160Y2908440D02*
D03*
D80*
X7962900Y2810840D02*
D03*
Y2910840D02*
D03*
D81*
X4835100Y2675000D02*
D03*
X4385100Y3522600D02*
D03*
X4435100D02*
D03*
X4485100D02*
D03*
X4535100D02*
D03*
X4685100D02*
D03*
X4735100D02*
D03*
X4785100D02*
D03*
X4835100D02*
D03*
X4885100D02*
D03*
Y2675000D02*
D03*
X4785100D02*
D03*
X4735100D02*
D03*
X4685100D02*
D03*
X4635100D02*
D03*
X4585100D02*
D03*
X4535100D02*
D03*
X4485100D02*
D03*
X4435100D02*
D03*
X4385100D02*
D03*
X4335100D02*
D03*
X4635100Y3522600D02*
D03*
X4335100D02*
D03*
X4585100D02*
D03*
D82*
X4497800Y4958700D02*
D03*
D83*
X2781300Y4373000D02*
D03*
X2654300Y4898000D02*
D03*
X2908300D02*
D03*
X2781300D02*
D03*
X3035300D02*
D03*
Y4373000D02*
D03*
X2908300D02*
D03*
X2654300D02*
D03*
D84*
X4189420Y1700675D02*
D03*
X4309420D02*
D03*
D85*
X3919220Y3062240D02*
D03*
X4155440Y1059825D02*
D03*
X3919220Y2937240D02*
D03*
X4155440Y1184825D02*
D03*
D86*
X612000Y3977640D02*
D03*
X762000D02*
D03*
X7569200Y4152900D02*
D03*
X7419200D02*
D03*
D87*
X2774800Y5181600D02*
D03*
X2914800D02*
D03*
D88*
X3924300Y5778500D02*
D03*
X4686300D02*
D03*
X4178300D02*
D03*
X4432300D02*
D03*
X5448300D02*
D03*
X4940300D02*
D03*
X5194300D02*
D03*
X6134100Y254000D02*
D03*
X6388100D02*
D03*
X6642100D02*
D03*
X6896100D02*
D03*
X7150100D02*
D03*
X7404100D02*
D03*
X7658100D02*
D03*
D89*
X3670300Y5778500D02*
D03*
X5880100Y254000D02*
D03*
D90*
X4330073Y3846187D02*
D03*
X3329940Y3136900D02*
D03*
X4419600Y2222500D02*
D03*
X4546600Y1965960D02*
D03*
X5933547Y3530600D02*
D03*
X7609840Y1178560D02*
D03*
X4198620Y4833620D02*
D03*
X2555240Y4899660D02*
D03*
X3756660Y3380740D02*
D03*
X4157980Y962660D02*
D03*
X4107180Y5379720D02*
D03*
X5920740Y2877820D02*
D03*
X4079240Y3970020D02*
D03*
X5725160Y2654300D02*
D03*
X4864100Y1419860D02*
D03*
X3698240Y2219960D02*
D03*
X3594100Y2296160D02*
D03*
X5207000Y5334000D02*
D03*
X4533900Y1524000D02*
D03*
D91*
X4993640Y2092960D02*
D03*
X7447280Y1328420D02*
D03*
X6790358Y2401340D02*
D03*
X3491247Y2515887D02*
D03*
X6413500Y3683000D02*
D03*
X3987800Y3733800D02*
D03*
X5080000Y4978400D02*
D03*
D92*
X4191000Y1821180D02*
D03*
X4876800Y2359660D02*
D03*
X3713480Y1465580D02*
D03*
X3675380Y1257300D02*
D03*
X8536940Y3939540D02*
D03*
X8425180Y3266440D02*
D03*
X5433060Y3332480D02*
D03*
X5295900Y3319780D02*
D03*
X7965440Y2705100D02*
D03*
X1153160Y4058920D02*
D03*
X3992880Y1668780D02*
D03*
X3807460Y3055620D02*
D03*
X3271520Y2501900D02*
D03*
X3961946Y807720D02*
D03*
X4351020Y1021080D02*
D03*
X4114558Y5232158D02*
D03*
D93*
X3916680Y5090160D02*
D03*
X4518660Y5351780D02*
D03*
X4577080Y4193540D02*
D03*
X4193540Y4584700D02*
D03*
X2814617Y4271983D02*
D03*
X2654300Y3295567D02*
D03*
X3044800Y2812440D02*
D03*
X2654300Y2425700D02*
D03*
X5569572Y4261472D02*
D03*
X4521200Y4587240D02*
D03*
X4622800Y4414520D02*
D03*
X3385820Y4224020D02*
D03*
X3213100Y4902200D02*
D03*
D94*
X4552800Y4903700D02*
D03*
Y5013700D02*
D03*
X4442800D02*
D03*
Y4903700D02*
D03*
%TF.MD5,c2e7d5d395666206a8e526c405ae0579*%
M02*
