%TF.GenerationSoftware,Altium Limited,Altium Designer,26.2.0 (7)*%
G04 Layer_Color=16711935*
%FSLAX45Y45*%
%MOMM*%
%TF.SameCoordinates,3DE98A4C-37D3-4DC4-9310-D33B0FF0074B*%
%TF.FilePolarity,Negative*%
%TF.FileFunction,Soldermask,Bot*%
%TF.Part,Single*%
G01*
G75*
%TA.AperFunction,ComponentPad*%
%ADD59R,1.40000X1.40000*%
%ADD60C,1.40000*%
%ADD62R,1.40000X1.40000*%
%ADD88C,1.70320*%
%ADD89R,1.70320X1.70320*%
%TA.AperFunction,ViaPad*%
%ADD90C,0.80320*%
%ADD91C,1.10320*%
%ADD93C,0.75320*%
%ADD94C,0.70320*%
D59*
X266700Y2298700D02*
D03*
X269240Y3505200D02*
D03*
X8615680Y2369820D02*
D03*
D60*
X266700Y2048700D02*
D03*
X269240Y3255200D02*
D03*
X6000400Y5619900D02*
D03*
X4642200Y336400D02*
D03*
X1036700Y469900D02*
D03*
X8615680Y2119820D02*
D03*
X3181700Y336400D02*
D03*
X2931700D02*
D03*
X2681700D02*
D03*
X4392200D02*
D03*
X4142200D02*
D03*
X1818100Y5708800D02*
D03*
X7508201Y5556100D02*
D03*
X2719800Y5708800D02*
D03*
X1536700Y469900D02*
D03*
X1286700D02*
D03*
X6500400Y5619900D02*
D03*
X6250400D02*
D03*
D62*
X3892200Y336400D02*
D03*
X6750400Y5619900D02*
D03*
X2431700Y336400D02*
D03*
X2068100Y5708800D02*
D03*
X7258201Y5556100D02*
D03*
X2969800Y5708800D02*
D03*
X1786700Y469900D02*
D03*
D88*
X3924300Y5778500D02*
D03*
X4686300D02*
D03*
X4178300D02*
D03*
X4432300D02*
D03*
X5448300D02*
D03*
X4940300D02*
D03*
X5194300D02*
D03*
X6134100Y254000D02*
D03*
X6388100D02*
D03*
X6642100D02*
D03*
X6896100D02*
D03*
X7150100D02*
D03*
X7404100D02*
D03*
X7658100D02*
D03*
D89*
X3670300Y5778500D02*
D03*
X5880100Y254000D02*
D03*
D90*
X3329940Y3136900D02*
D03*
X4419600Y2222500D02*
D03*
X4546600Y1965960D02*
D03*
X7609840Y1178560D02*
D03*
X2555240Y4899660D02*
D03*
X3756660Y3380740D02*
D03*
X4157980Y962660D02*
D03*
X4107180Y5379720D02*
D03*
X5920740Y2877820D02*
D03*
X4079240Y3970020D02*
D03*
X5725160Y2654300D02*
D03*
X4864100Y1419860D02*
D03*
X3698240Y2219960D02*
D03*
X3594100Y2296160D02*
D03*
X5207000Y5334000D02*
D03*
X4533900Y1524000D02*
D03*
D91*
X3491247Y2515887D02*
D03*
D93*
X5569572Y4261472D02*
D03*
X4521200Y4587240D02*
D03*
X4622800Y4414520D02*
D03*
D94*
X4552800Y4903700D02*
D03*
Y5013700D02*
D03*
X4442800D02*
D03*
Y4903700D02*
D03*
%TF.MD5,ff502d76453360164eb6ec4650bd322c*%
M02*
