%TF.GenerationSoftware,Altium Limited,Altium Designer,26.2.0 (7)*%
G04 Layer_Color=0*
%FSLAX45Y45*%
%MOMM*%
%TF.SameCoordinates,3DE98A4C-37D3-4DC4-9310-D33B0FF0074B*%
%TF.FilePolarity,Positive*%
%TF.FileFunction,Plated,1,4,PTH,Drill*%
%TF.Part,Single*%
G01*
G75*
%TA.AperFunction,ComponentDrill*%
%ADD96C,0.90000*%
%ADD97C,0.90000*%
%TA.AperFunction,ViaDrill,NotFilled*%
%ADD98C,0.25000*%
%ADD99C,0.20000*%
%ADD100C,0.40000*%
D96*
X266700Y2298700D02*
D03*
Y2048700D02*
D03*
X269240Y3505200D02*
D03*
Y3255200D02*
D03*
X8615680Y2369820D02*
D03*
Y2119820D02*
D03*
D97*
X6000400Y5619900D02*
D03*
X4642200Y336400D02*
D03*
X3924300Y5778500D02*
D03*
X1036700Y469900D02*
D03*
X3892200Y336400D02*
D03*
X6750400Y5619900D02*
D03*
X4686300Y5778500D02*
D03*
X3181700Y336400D02*
D03*
X2931700D02*
D03*
X2681700D02*
D03*
X2431700D02*
D03*
X3670300Y5778500D02*
D03*
X4178300D02*
D03*
X4432300D02*
D03*
X5448300D02*
D03*
X4940300D02*
D03*
X5194300D02*
D03*
X4392200Y336400D02*
D03*
X4142200D02*
D03*
X1818100Y5708800D02*
D03*
X2068100D02*
D03*
X7258201Y5556100D02*
D03*
X7508201D02*
D03*
X2719800Y5708800D02*
D03*
X2969800D02*
D03*
X5880100Y254000D02*
D03*
X6134100D02*
D03*
X6388100D02*
D03*
X6642100D02*
D03*
X6896100D02*
D03*
X7150100D02*
D03*
X7404100D02*
D03*
X7658100D02*
D03*
X1786700Y469900D02*
D03*
X1536700D02*
D03*
X1286700D02*
D03*
X6500400Y5619900D02*
D03*
X6250400D02*
D03*
D98*
X3329940Y3136900D02*
D03*
X4419600Y2222500D02*
D03*
X4546600Y1965960D02*
D03*
X7609840Y1178560D02*
D03*
X2555240Y4899660D02*
D03*
X3756660Y3380740D02*
D03*
X4157980Y962660D02*
D03*
X4107180Y5379720D02*
D03*
X5569572Y4261472D02*
D03*
X5920740Y2877820D02*
D03*
X4521200Y4587240D02*
D03*
X4622800Y4414520D02*
D03*
X4079240Y3970020D02*
D03*
X5725160Y2654300D02*
D03*
X4864100Y1419860D02*
D03*
X3698240Y2219960D02*
D03*
X3594100Y2296160D02*
D03*
X5207000Y5334000D02*
D03*
X4533900Y1524000D02*
D03*
D99*
X4552800Y4903700D02*
D03*
Y5013700D02*
D03*
X4442800D02*
D03*
Y4903700D02*
D03*
D100*
X3491247Y2515887D02*
D03*
%TF.MD5,a9f5de8cc7d8d87254c51e6f0750013c*%
M02*
