%TF.GenerationSoftware,Altium Limited,Altium Designer,26.2.0 (7)*%
G04 Layer_Physical_Order=1*
G04 Layer_Color=255*
%FSLAX45Y45*%
%MOMM*%
%TF.SameCoordinates,3DE98A4C-37D3-4DC4-9310-D33B0FF0074B*%
%TF.FilePolarity,Positive*%
%TF.FileFunction,Copper,L1,Top,Signal*%
%TF.Part,Single*%
G01*
G75*
%TA.AperFunction,SMDPad,CuDef*%
G04:AMPARAMS|DCode=10|XSize=1.00429mm|YSize=3.18213mm|CornerRadius=0.43687mm|HoleSize=0mm|Usage=FLASHONLY|Rotation=270.000|XOffset=0mm|YOffset=0mm|HoleType=Round|Shape=RoundedRectangle|*
%AMROUNDEDRECTD10*
21,1,1.00429,2.30840,0,0,270.0*
21,1,0.13056,3.18213,0,0,270.0*
1,1,0.87373,-1.15420,-0.06528*
1,1,0.87373,-1.15420,0.06528*
1,1,0.87373,1.15420,0.06528*
1,1,0.87373,1.15420,-0.06528*
%
%ADD10ROUNDEDRECTD10*%
G04:AMPARAMS|DCode=11|XSize=1.00429mm|YSize=0.87213mm|CornerRadius=0.43606mm|HoleSize=0mm|Usage=FLASHONLY|Rotation=270.000|XOffset=0mm|YOffset=0mm|HoleType=Round|Shape=RoundedRectangle|*
%AMROUNDEDRECTD11*
21,1,1.00429,0.00000,0,0,270.0*
21,1,0.13216,0.87213,0,0,270.0*
1,1,0.87213,0.00000,-0.06608*
1,1,0.87213,0.00000,0.06608*
1,1,0.87213,0.00000,0.06608*
1,1,0.87213,0.00000,-0.06608*
%
%ADD11ROUNDEDRECTD11*%
%ADD12R,0.87213X1.00429*%
%ADD13R,2.20000X4.20000*%
%ADD14R,1.38000X0.45000*%
%ADD15R,0.90000X0.80000*%
%ADD16R,2.08000X3.81000*%
%ADD17R,0.80000X0.35000*%
%ADD18R,1.15814X1.01213*%
%ADD19R,0.95000X0.95000*%
%ADD20R,1.47500X0.30000*%
G04:AMPARAMS|DCode=21|XSize=0.8mm|YSize=1mm|CornerRadius=0.1mm|HoleSize=0mm|Usage=FLASHONLY|Rotation=0.000|XOffset=0mm|YOffset=0mm|HoleType=Round|Shape=RoundedRectangle|*
%AMROUNDEDRECTD21*
21,1,0.80000,0.80000,0,0,0.0*
21,1,0.60000,1.00000,0,0,0.0*
1,1,0.20000,0.30000,-0.40000*
1,1,0.20000,-0.30000,-0.40000*
1,1,0.20000,-0.30000,0.40000*
1,1,0.20000,0.30000,0.40000*
%
%ADD21ROUNDEDRECTD21*%
%ADD22R,0.35000X0.85000*%
%ADD23R,1.00000X0.80000*%
G04:AMPARAMS|DCode=24|XSize=0.6mm|YSize=0.7mm|CornerRadius=0.075mm|HoleSize=0mm|Usage=FLASHONLY|Rotation=90.000|XOffset=0mm|YOffset=0mm|HoleType=Round|Shape=RoundedRectangle|*
%AMROUNDEDRECTD24*
21,1,0.60000,0.55000,0,0,90.0*
21,1,0.45000,0.70000,0,0,90.0*
1,1,0.15000,0.27500,0.22500*
1,1,0.15000,0.27500,-0.22500*
1,1,0.15000,-0.27500,-0.22500*
1,1,0.15000,-0.27500,0.22500*
%
%ADD24ROUNDEDRECTD24*%
%ADD25R,1.01213X1.15814*%
%ADD26R,0.30000X1.47500*%
%ADD27R,0.91213X0.95814*%
%ADD28R,2.70000X2.60000*%
%ADD29R,0.75814X0.81213*%
%ADD30O,0.55000X1.25000*%
%ADD31R,0.85000X0.90000*%
%ADD32R,0.95000X0.95000*%
%ADD33R,0.35000X0.37500*%
%ADD34R,0.37500X0.35000*%
%ADD35R,1.80000X1.20000*%
%ADD36R,1.10606X0.95822*%
G04:AMPARAMS|DCode=37|XSize=1.55748mm|YSize=0.74248mm|CornerRadius=0.37124mm|HoleSize=0mm|Usage=FLASHONLY|Rotation=0.000|XOffset=0mm|YOffset=0mm|HoleType=Round|Shape=RoundedRectangle|*
%AMROUNDEDRECTD37*
21,1,1.55748,0.00000,0,0,0.0*
21,1,0.81501,0.74248,0,0,0.0*
1,1,0.74247,0.40750,0.00000*
1,1,0.74247,-0.40750,0.00000*
1,1,0.74247,-0.40750,0.00000*
1,1,0.74247,0.40750,0.00000*
%
%ADD37ROUNDEDRECTD37*%
%ADD38R,1.55748X0.74248*%
%ADD39R,1.00000X1.00000*%
%ADD40R,1.55000X1.42500*%
%ADD41R,1.90000X1.00000*%
%ADD42R,1.90000X1.80000*%
%ADD43R,1.30000X1.65000*%
%ADD44R,11.43000X8.89000*%
%ADD45R,0.80000X1.00000*%
G04:AMPARAMS|DCode=46|XSize=0.76mm|YSize=0.6604mm|CornerRadius=0.08255mm|HoleSize=0mm|Usage=FLASHONLY|Rotation=270.000|XOffset=0mm|YOffset=0mm|HoleType=Round|Shape=RoundedRectangle|*
%AMROUNDEDRECTD46*
21,1,0.76000,0.49530,0,0,270.0*
21,1,0.59490,0.66040,0,0,270.0*
1,1,0.16510,-0.24765,-0.29745*
1,1,0.16510,-0.24765,0.29745*
1,1,0.16510,0.24765,0.29745*
1,1,0.16510,0.24765,-0.29745*
%
%ADD46ROUNDEDRECTD46*%
%TA.AperFunction,Conductor*%
%ADD47C,0.30000*%
%ADD48C,0.25400*%
%ADD49C,0.20000*%
%ADD50C,0.50000*%
%TA.AperFunction,NonConductor*%
%ADD51C,0.25400*%
%TA.AperFunction,Conductor*%
%ADD52C,0.75000*%
%ADD53C,0.55000*%
%ADD54C,0.40000*%
%ADD55C,1.00000*%
%ADD56C,0.26450*%
%ADD57C,0.75500*%
%ADD58C,0.25000*%
%TA.AperFunction,ComponentPad*%
%ADD59R,1.40000X1.40000*%
%ADD60C,1.40000*%
%ADD61C,1.50000*%
%ADD62R,1.40000X1.40000*%
%ADD63R,1.50000X1.50000*%
%TA.AperFunction,ViaPad*%
%ADD64C,0.60000*%
%ADD65C,0.90000*%
%ADD66C,0.70000*%
%ADD67C,0.55000*%
%ADD68C,0.50000*%
G36*
X7975600Y2780222D02*
X7990400D01*
X7996140Y2782600D01*
X7998518Y2788340D01*
Y2801620D01*
X8044180D01*
X8077200Y2768600D01*
Y2644139D01*
X8046719Y2613660D01*
X7632700D01*
X7584440Y2565400D01*
Y2491740D01*
X7635239Y2440940D01*
X7721600D01*
X7772400Y2390140D01*
Y2131060D01*
X7736840Y2087880D01*
X7620000D01*
X7581900Y2125980D01*
X7581900Y2275840D01*
X7584440Y2278380D01*
X7538720Y2324100D01*
X7358380Y2324100D01*
X7330247Y2352234D01*
X7372499D01*
Y2402840D01*
Y2453446D01*
X7327900D01*
Y2601154D01*
X7372499D01*
Y2651760D01*
Y2702366D01*
X7327900D01*
Y2788920D01*
X7340600Y2801620D01*
X7927282D01*
Y2788340D01*
X7929660Y2782600D01*
X7935400Y2780222D01*
X7950200D01*
Y2810840D01*
X7975600D01*
Y2780222D01*
D02*
G37*
G36*
X7277100Y3009899D02*
Y2702366D01*
X7232501D01*
Y2651760D01*
Y2601154D01*
X7277100D01*
X7277100Y2453446D01*
X7232501D01*
Y2402840D01*
Y2352234D01*
X7277100D01*
Y2085109D01*
X7251700Y2057400D01*
X7124700D01*
X7096760Y2087880D01*
X7091680Y3007360D01*
X7122160Y3037840D01*
X7249160D01*
X7277100Y3009899D01*
D02*
G37*
G36*
X7499420Y2235224D02*
X7522280Y2212364D01*
X7522281Y1638324D01*
X7575620Y1584984D01*
X7954081D01*
X8016240Y1522824D01*
Y1275080D01*
X8001000Y1259840D01*
X7143844D01*
X7100641Y1303044D01*
Y1470684D01*
X7347021Y1717064D01*
Y2212364D01*
X7382581Y2235224D01*
X7499420Y2235224D01*
D02*
G37*
%LPC*%
G36*
X7746806Y2792068D02*
X7708900D01*
Y2746860D01*
X7746806D01*
Y2792068D01*
D02*
G37*
G36*
X7683500D02*
X7645594D01*
Y2746860D01*
X7683500D01*
Y2792068D01*
D02*
G37*
G36*
X7978140Y2737723D02*
Y2717800D01*
X7998063D01*
X7995112Y2724926D01*
X7985266Y2734772D01*
X7978140Y2737723D01*
D02*
G37*
G36*
X7952740D02*
X7945614Y2734772D01*
X7935768Y2724926D01*
X7932817Y2717800D01*
X7952740D01*
Y2737723D01*
D02*
G37*
G36*
X7746806Y2721460D02*
X7708900D01*
Y2676254D01*
X7746806D01*
Y2721460D01*
D02*
G37*
G36*
X7683500D02*
X7645594D01*
Y2676254D01*
X7683500D01*
Y2721460D01*
D02*
G37*
G36*
X7998063Y2692400D02*
X7978140D01*
Y2672477D01*
X7985266Y2675428D01*
X7995112Y2685274D01*
X7998063Y2692400D01*
D02*
G37*
G36*
X7952740D02*
X7932817D01*
X7935768Y2685274D01*
X7945614Y2675428D01*
X7952740Y2672477D01*
Y2692400D01*
D02*
G37*
G36*
X7443106Y2702366D02*
X7397899D01*
Y2664460D01*
X7443106D01*
Y2702366D01*
D02*
G37*
G36*
Y2639060D02*
X7397899D01*
Y2601154D01*
X7443106D01*
Y2639060D01*
D02*
G37*
G36*
Y2453446D02*
X7397899D01*
Y2415540D01*
X7443106D01*
Y2453446D01*
D02*
G37*
G36*
Y2390140D02*
X7397899D01*
Y2352234D01*
X7443106D01*
Y2390140D01*
D02*
G37*
G36*
X7710127Y2214295D02*
X7679221D01*
Y2176780D01*
X7710127D01*
Y2214295D01*
D02*
G37*
G36*
X7653821D02*
X7622914D01*
Y2176780D01*
X7653821D01*
Y2214295D01*
D02*
G37*
G36*
X7710127Y2151380D02*
X7679221D01*
Y2113865D01*
X7710127D01*
Y2151380D01*
D02*
G37*
G36*
X7653821D02*
X7622914D01*
Y2113865D01*
X7653821D01*
Y2151380D01*
D02*
G37*
G36*
X7237180Y2966744D02*
X7219879D01*
Y2928619D01*
X7248004D01*
Y2955920D01*
X7244834Y2963574D01*
X7237180Y2966744D01*
D02*
G37*
G36*
X7194479D02*
X7177180D01*
X7169526Y2963574D01*
X7166356Y2955920D01*
Y2928619D01*
X7194479D01*
Y2966744D01*
D02*
G37*
G36*
X7248004Y2903219D02*
X7219879D01*
Y2865096D01*
X7237180D01*
X7244834Y2868266D01*
X7248004Y2875920D01*
Y2903219D01*
D02*
G37*
G36*
X7194479D02*
X7166356D01*
Y2875920D01*
X7169526Y2868266D01*
X7177180Y2865096D01*
X7194479D01*
Y2903219D01*
D02*
G37*
G36*
X7207101Y2702366D02*
X7161894D01*
Y2664460D01*
X7207101D01*
Y2702366D01*
D02*
G37*
G36*
Y2639060D02*
X7161894D01*
Y2601154D01*
X7207101D01*
Y2639060D01*
D02*
G37*
G36*
Y2453446D02*
X7161894D01*
Y2415540D01*
X7207101D01*
Y2453446D01*
D02*
G37*
G36*
Y2390140D02*
X7161894D01*
Y2352234D01*
X7207101D01*
Y2390140D01*
D02*
G37*
G36*
X7221220Y2212623D02*
Y2176779D01*
X7251769D01*
X7249596Y2187703D01*
X7239958Y2202126D01*
X7225534Y2211764D01*
X7221220Y2212623D01*
D02*
G37*
G36*
X7195820D02*
X7191506Y2211764D01*
X7177082Y2202126D01*
X7167444Y2187703D01*
X7165271Y2176779D01*
X7195820D01*
Y2212623D01*
D02*
G37*
G36*
X7251769Y2151379D02*
X7221220D01*
Y2115537D01*
X7225534Y2116396D01*
X7239958Y2126034D01*
X7249596Y2140457D01*
X7251769Y2151379D01*
D02*
G37*
G36*
X7195820D02*
X7165271D01*
X7167444Y2140457D01*
X7177082Y2126034D01*
X7191506Y2116396D01*
X7195820Y2115537D01*
Y2151379D01*
D02*
G37*
G36*
X7450220Y2212622D02*
Y2176780D01*
X7480769D01*
X7478596Y2187703D01*
X7468958Y2202126D01*
X7454534Y2211764D01*
X7450220Y2212622D01*
D02*
G37*
G36*
X7424820Y2212623D02*
X7420506Y2211764D01*
X7406082Y2202126D01*
X7396444Y2187703D01*
X7394271Y2176780D01*
X7424820D01*
Y2212623D01*
D02*
G37*
G36*
X7480769Y2151380D02*
X7450220D01*
Y2115538D01*
X7454534Y2116396D01*
X7468958Y2126034D01*
X7478596Y2140457D01*
X7480769Y2151380D01*
D02*
G37*
G36*
X7424820D02*
X7394271D01*
X7396444Y2140457D01*
X7406082Y2126034D01*
X7420506Y2116396D01*
X7424820Y2115537D01*
Y2151380D01*
D02*
G37*
G36*
X7552940Y1556151D02*
X7450220D01*
Y1517780D01*
X7596255D01*
X7594092Y1528654D01*
X7584436Y1543104D01*
X7569986Y1552760D01*
X7552940Y1556151D01*
D02*
G37*
G36*
X7424820D02*
X7322100D01*
X7305054Y1552760D01*
X7290604Y1543104D01*
X7280948Y1528654D01*
X7278785Y1517780D01*
X7424820D01*
Y1556151D01*
D02*
G37*
G36*
X7596255Y1492380D02*
X7450220D01*
Y1454010D01*
X7552940D01*
X7569986Y1457400D01*
X7584436Y1467056D01*
X7594092Y1481507D01*
X7596255Y1492380D01*
D02*
G37*
G36*
X7424820D02*
X7278785D01*
X7280948Y1481507D01*
X7290604Y1467056D01*
X7305054Y1457400D01*
X7322100Y1454010D01*
X7424820D01*
Y1492380D01*
D02*
G37*
G36*
X7459980Y1371867D02*
Y1341120D01*
X7490727D01*
X7485429Y1353910D01*
X7472770Y1366569D01*
X7459980Y1371867D01*
D02*
G37*
G36*
X7434580D02*
X7421790Y1366569D01*
X7409131Y1353910D01*
X7403833Y1341120D01*
X7434580D01*
Y1371867D01*
D02*
G37*
G36*
X7999180Y1374164D02*
X7981879D01*
Y1336039D01*
X8010004D01*
Y1363340D01*
X8006834Y1370994D01*
X7999180Y1374164D01*
D02*
G37*
G36*
X7956479D02*
X7939180D01*
X7931526Y1370994D01*
X7928356Y1363340D01*
Y1336039D01*
X7956479D01*
Y1374164D01*
D02*
G37*
G36*
X7777366Y1370286D02*
X7744459D01*
Y1335079D01*
X7777366D01*
Y1370286D01*
D02*
G37*
G36*
X7719059D02*
X7686154D01*
Y1335079D01*
X7719059D01*
Y1370286D01*
D02*
G37*
G36*
X7490727Y1315720D02*
X7459980D01*
Y1284973D01*
X7472770Y1290271D01*
X7485429Y1302930D01*
X7490727Y1315720D01*
D02*
G37*
G36*
X7434580D02*
X7403833D01*
X7409131Y1302930D01*
X7421790Y1290271D01*
X7434580Y1284973D01*
Y1315720D01*
D02*
G37*
G36*
X7777366Y1309679D02*
X7744459D01*
Y1274472D01*
X7777366D01*
Y1309679D01*
D02*
G37*
G36*
X7719059D02*
X7686154D01*
Y1274472D01*
X7719059D01*
Y1309679D01*
D02*
G37*
G36*
X8010004Y1310639D02*
X7981879D01*
Y1272516D01*
X7999180D01*
X8006834Y1275686D01*
X8010004Y1283340D01*
Y1310639D01*
D02*
G37*
G36*
X7956479D02*
X7928356D01*
Y1283340D01*
X7931526Y1275686D01*
X7939180Y1272516D01*
X7956479D01*
Y1310639D01*
D02*
G37*
%LPD*%
D10*
X7437520Y1505080D02*
D03*
D11*
Y2164080D02*
D03*
X7208520D02*
D03*
D12*
X7666520D02*
D03*
D13*
X1254760Y3530600D02*
D03*
Y2800600D02*
D03*
D14*
X8588440Y3007220D02*
D03*
Y3267220D02*
D03*
Y3202220D02*
D03*
Y3137220D02*
D03*
Y3072220D02*
D03*
D15*
X8326515Y2910840D02*
D03*
X8156515D02*
D03*
D16*
X8534400Y4203700D02*
D03*
X1155700Y4330700D02*
D03*
X8026400Y4203700D02*
D03*
X647700Y4330700D02*
D03*
D17*
X4697800Y4833700D02*
D03*
X4297800D02*
D03*
Y5083700D02*
D03*
X4697800Y4883700D02*
D03*
Y4933700D02*
D03*
Y4983700D02*
D03*
Y5033700D02*
D03*
Y5083700D02*
D03*
X4297800Y4883700D02*
D03*
Y4933700D02*
D03*
Y4983700D02*
D03*
Y5033700D02*
D03*
D18*
X5825639Y3530600D02*
D03*
X7385199Y2651760D02*
D03*
Y2402840D02*
D03*
X7219801D02*
D03*
Y2651760D02*
D03*
X5660241Y3530600D02*
D03*
D19*
X5432060Y3449320D02*
D03*
X4865100Y2475874D02*
D03*
X4281900Y5407660D02*
D03*
X4022374Y5088200D02*
D03*
X4343400Y3733800D02*
D03*
X3862800Y3380075D02*
D03*
X2822940Y4165600D02*
D03*
X3438620Y3131820D02*
D03*
X3828875Y1460500D02*
D03*
X3953875D02*
D03*
X4990100Y2475874D02*
D03*
X5307060Y3449320D02*
D03*
X4218400Y3733800D02*
D03*
X3987800Y3380075D02*
D03*
X4147374Y5088200D02*
D03*
X4406900Y5407660D02*
D03*
X2947940Y4165600D02*
D03*
X3563620Y3131820D02*
D03*
D20*
X5033900Y3323800D02*
D03*
X4186300Y3023800D02*
D03*
X5033900Y3373800D02*
D03*
Y3273800D02*
D03*
Y3223800D02*
D03*
Y3173800D02*
D03*
Y3123800D02*
D03*
Y3073800D02*
D03*
Y3023800D02*
D03*
Y2973800D02*
D03*
Y2923800D02*
D03*
Y2873800D02*
D03*
Y2823800D02*
D03*
X4186300D02*
D03*
Y2873800D02*
D03*
Y2923800D02*
D03*
Y2973800D02*
D03*
Y3073800D02*
D03*
Y3123800D02*
D03*
Y3173800D02*
D03*
Y3223800D02*
D03*
Y3273800D02*
D03*
Y3323800D02*
D03*
Y3373800D02*
D03*
D21*
X4624000Y5361940D02*
D03*
X7357180Y2915920D02*
D03*
X7207180D02*
D03*
X4774000Y5361940D02*
D03*
X7969180Y1323340D02*
D03*
X8119180D02*
D03*
D22*
X4422800Y5156200D02*
D03*
X4522800D02*
D03*
X4572800D02*
D03*
X4622800Y4761200D02*
D03*
Y5156200D02*
D03*
X4472800D02*
D03*
X4372800D02*
D03*
X4572800Y4761200D02*
D03*
X4522800D02*
D03*
X4472800D02*
D03*
X4422800D02*
D03*
X4372800D02*
D03*
D23*
X4572000Y4114800D02*
D03*
X8371840Y1177220D02*
D03*
X3566160Y2758440D02*
D03*
X8371840Y1327220D02*
D03*
X4572000Y3964800D02*
D03*
X3566160Y2908440D02*
D03*
D24*
X7962900Y2810840D02*
D03*
Y2910840D02*
D03*
D25*
X7696200Y2734161D02*
D03*
X3271520Y2631141D02*
D03*
X2654300Y2544781D02*
D03*
X3271520Y2796540D02*
D03*
X7696200Y2899559D02*
D03*
X2654300Y2710180D02*
D03*
D26*
X4835100Y2675000D02*
D03*
X4385100Y3522600D02*
D03*
X4435100D02*
D03*
X4485100D02*
D03*
X4535100D02*
D03*
X4685100D02*
D03*
X4735100D02*
D03*
X4785100D02*
D03*
X4835100D02*
D03*
X4885100D02*
D03*
Y2675000D02*
D03*
X4785100D02*
D03*
X4735100D02*
D03*
X4685100D02*
D03*
X4635100D02*
D03*
X4585100D02*
D03*
X4535100D02*
D03*
X4485100D02*
D03*
X4435100D02*
D03*
X4385100D02*
D03*
X4335100D02*
D03*
X4635100Y3522600D02*
D03*
X4335100D02*
D03*
X4585100D02*
D03*
D27*
X7731760Y1176981D02*
D03*
Y1322379D02*
D03*
D28*
X4497800Y4958700D02*
D03*
D29*
X4281501Y4585774D02*
D03*
X4406900D02*
D03*
D30*
X2781300Y4373000D02*
D03*
X2654300Y4898000D02*
D03*
X2908300D02*
D03*
X2781300D02*
D03*
X3035300D02*
D03*
Y4373000D02*
D03*
X2908300D02*
D03*
X2654300D02*
D03*
D31*
X4189420Y1700675D02*
D03*
X4309420D02*
D03*
D32*
X3919220Y3062240D02*
D03*
X4155440Y1059825D02*
D03*
X3919220Y2937240D02*
D03*
X4155440Y1184825D02*
D03*
D33*
X4191800Y1524000D02*
D03*
X4241800D02*
D03*
X4191800Y1371500D02*
D03*
X4241800D02*
D03*
D34*
X4140550Y1472750D02*
D03*
X4293050Y1372750D02*
D03*
Y1422750D02*
D03*
Y1522750D02*
D03*
X4140550D02*
D03*
X4293050Y1472750D02*
D03*
X4140550Y1422750D02*
D03*
Y1372750D02*
D03*
D35*
X2644800Y3168000D02*
D03*
X3044800Y2928000D02*
D03*
Y3168000D02*
D03*
X2644800Y2928000D02*
D03*
D36*
X3800855Y1259160D02*
D03*
X3936072D02*
D03*
D37*
X7523337Y4927600D02*
D03*
X1778286Y5082540D02*
D03*
D38*
X7183263Y4927600D02*
D03*
X2118360Y5082540D02*
D03*
D39*
X4495800Y1187325D02*
D03*
Y1027325D02*
D03*
X5168651Y4635500D02*
D03*
X4943225Y4639300D02*
D03*
X4864100Y1957060D02*
D03*
Y1797060D02*
D03*
X4943225Y4479300D02*
D03*
X5168651Y4475500D02*
D03*
D40*
X8596940Y3385970D02*
D03*
Y2888470D02*
D03*
D41*
X8854440Y3292220D02*
D03*
D42*
Y3022220D02*
D03*
D43*
Y3474720D02*
D03*
Y2799720D02*
D03*
D44*
X8280400Y5346700D02*
D03*
X901700Y5473700D02*
D03*
D45*
X612000Y3977640D02*
D03*
X762000D02*
D03*
X7569200Y4152900D02*
D03*
X7419200D02*
D03*
D46*
X2774800Y5181600D02*
D03*
X2914800D02*
D03*
D47*
X3581400Y2923680D02*
Y3121660D01*
X3566160Y2908440D02*
X3581400Y2923680D01*
X3573780Y3129280D02*
X3581400Y3121660D01*
X3566160Y3129280D02*
X3573780D01*
X3563620Y3131820D02*
X3566160Y3129280D01*
X4437198Y5320034D02*
Y5377362D01*
X4406900Y5407660D02*
X4437198Y5377362D01*
X4472800Y5230000D02*
Y5284432D01*
X4437198Y5320034D02*
X4472800Y5284432D01*
X4314400Y5342819D02*
X4372200Y5285020D01*
X4314400Y5342819D02*
Y5375160D01*
X4281900Y5407660D02*
X4314400Y5375160D01*
X4372200Y5285020D02*
X4394270Y5262950D01*
X4372200Y5285020D02*
Y5285020D01*
X4522800Y5246620D02*
Y5347640D01*
Y5246620D02*
X4525300Y5244120D01*
X4529117Y5356563D02*
X4603383D01*
X4521497Y5348943D02*
X4529117Y5356563D01*
X4518660Y5351780D02*
X4522800Y5347640D01*
X4603383Y5356563D02*
X4611003Y5348943D01*
X4624000Y5361940D01*
X8449900Y3007680D02*
X8450360Y3007220D01*
X8588440D01*
X8588120Y3266900D02*
X8588440Y3267220D01*
X8486600Y3266900D02*
X8588120D01*
X5168900Y3323800D02*
X5200440D01*
X4577080Y4119880D02*
Y4193540D01*
X4572000Y4114800D02*
X4577080Y4119880D01*
X4385100Y3641300D02*
Y3654000D01*
X4836160Y2506934D02*
Y2560320D01*
X4835100Y2505874D02*
X4836160Y2506934D01*
X4198700Y4833700D02*
X4234100D01*
X4198620Y4833620D02*
X4198700Y4833700D01*
X4343400Y3733800D02*
X4368800Y3708400D01*
X4343400Y3733800D02*
X4348480Y3738880D01*
X4385100Y3641300D02*
X4385100Y3641300D01*
X4368800Y3670300D02*
Y3708400D01*
Y3670300D02*
X4385100Y3654000D01*
X2781300Y4331235D02*
Y4373000D01*
X2653470Y4898830D02*
X2654300Y4898000D01*
X2781300Y4331235D02*
X2814617Y4297918D01*
X2555240Y4899660D02*
X2556070Y4898830D01*
X2814617Y4271983D02*
Y4297918D01*
X4020820Y3058160D02*
X4055180Y3023800D01*
X4072960D01*
X3992880Y1592580D02*
Y1602740D01*
Y1592580D02*
X4030980Y1554480D01*
X3957320Y1076960D02*
X3964290Y1083930D01*
X4017630D02*
X4087663Y1153963D01*
X3964290Y1083930D02*
X4017630D01*
X4122940Y1153963D02*
X4140550Y1171573D01*
X4087663Y1153963D02*
X4122940D01*
X5142820Y3373800D02*
X5155520D01*
X5210720Y3429000D02*
X5286740D01*
X5155520Y3373800D02*
X5210720Y3429000D01*
X5286740D02*
X5307060Y3449320D01*
X4140550Y1171573D02*
Y1269650D01*
X4290550Y1470250D02*
X4291800Y1471500D01*
X4010660Y1460500D02*
X4051300D01*
X3987800Y3380075D02*
X3994755Y3373120D01*
X4071620D01*
X2910675Y4297845D02*
X2947940Y4260580D01*
Y4165600D02*
Y4260580D01*
X2910675Y4297845D02*
Y4370625D01*
X2908300Y4373000D02*
X2910675Y4370625D01*
X4000419Y2940120D02*
X4034100Y2973800D01*
X4058380D01*
X3581400Y2673320D02*
Y2694940D01*
X4535100Y3793420D02*
X4572000Y3830320D01*
X4535100Y3643700D02*
Y3793420D01*
X4572000Y3830320D02*
Y3964800D01*
X4940026Y2558374D02*
X4957600Y2540801D01*
Y2508374D02*
X4990100Y2475874D01*
X4957600Y2508374D02*
Y2540801D01*
X4892506Y2558374D02*
X4940026D01*
X4886160Y2564720D02*
X4892506Y2558374D01*
X5639921Y3550920D02*
X5660241Y3530600D01*
X4756109Y5344049D02*
X4774000Y5361940D01*
X4756109Y5292049D02*
Y5344049D01*
X4721860Y5257800D02*
X4756109Y5292049D01*
X4612416Y5257800D02*
X4721860D01*
X4587016Y5232400D02*
X4612416Y5257800D01*
X4151875Y5083700D02*
X4238100D01*
X4147374Y5088200D02*
X4151875Y5083700D01*
X4193000Y3733800D02*
X4205700Y3746500D01*
X4245713Y3706487D01*
Y3662474D02*
Y3706487D01*
Y3662474D02*
X4263287Y3644900D01*
X4323384D01*
X5080000Y4864100D02*
Y4978400D01*
X4943225Y4639300D02*
Y4727325D01*
X5080000Y4864100D01*
X5168651Y4635500D02*
X5186226Y4653075D01*
X5080000Y4864100D02*
X5186226Y4757874D01*
Y4653075D02*
Y4757874D01*
X3035300Y4898000D02*
X3037400Y4900100D01*
X3211000D02*
X3213100Y4902200D01*
X3037400Y4900100D02*
X3211000D01*
X4422800Y4601674D02*
Y4689500D01*
X4406900Y4585774D02*
X4422800Y4601674D01*
D48*
X3581400Y2694940D02*
Y2743200D01*
X3566160Y2758440D02*
X3581400Y2743200D01*
X4147374Y5088200D02*
X4175760Y5116586D01*
Y5211023D01*
X4160881Y5225902D02*
X4175760Y5211023D01*
X4114558Y5232158D02*
X4120814Y5225902D01*
X4160881D01*
D49*
X4183420Y3076680D02*
X4186300Y3073800D01*
X4098003Y3076680D02*
X4183420D01*
X4058920Y3115763D02*
X4098003Y3076680D01*
X4058920Y3115763D02*
Y3155664D01*
X4047204Y3167380D02*
X4058920Y3155664D01*
X3622996Y3167380D02*
X4047204D01*
X3622396Y3166780D02*
X3622996Y3167380D01*
X3611280Y3166780D02*
X3622396D01*
X3573780Y3129280D02*
X3611280Y3166780D01*
X4241800Y4048760D02*
X4435100Y3855460D01*
X2722880Y4048760D02*
X4241800D01*
X4435100Y3522600D02*
Y3855460D01*
X4597400Y1983444D02*
Y2366592D01*
X4585684Y1971728D02*
X4597400Y1983444D01*
X4552368Y1971728D02*
X4585684D01*
X4546600Y1965960D02*
X4552368Y1971728D01*
X4419600Y2222500D02*
Y2334948D01*
X4585100Y2500448D01*
X2644800Y2928000D02*
X2672080Y2900720D01*
X2654300Y2710180D02*
X2672080Y2727960D01*
Y2900720D01*
X4502800Y4958700D02*
X4627800Y4833700D01*
X4697800D01*
X5033900Y3323800D02*
X5168900D01*
X4525300Y5158700D02*
Y5244120D01*
X4522800Y5156200D02*
X4525300Y5158700D01*
X4394270Y5262950D02*
X4420300Y5236919D01*
Y5158700D02*
Y5236919D01*
Y5158700D02*
X4422800Y5156200D01*
X4522800Y4983700D02*
Y5156200D01*
X4497800Y4958700D02*
X4522800Y4983700D01*
X4422800Y5033700D02*
Y5156200D01*
Y5033700D02*
X4442800Y5013700D01*
X4497800Y4958700D02*
X4502800D01*
X4385100Y3522600D02*
Y3641300D01*
X4835100Y2675000D02*
X4836160Y2673940D01*
Y2560320D02*
Y2673940D01*
X4367800Y4833700D02*
X4440300Y4906200D01*
X4234100Y4833700D02*
X4297800D01*
X4367800D01*
X4189420Y1700675D02*
X4191800Y1698295D01*
Y1524000D02*
Y1698295D01*
X4072960Y3023800D02*
X4186300D01*
X4191800Y1486700D02*
Y1524000D01*
X4133050Y1480250D02*
X4140550Y1472750D01*
X4177850D01*
X4191800Y1486700D01*
X4030980Y1554480D02*
X4105210Y1480250D01*
X4133050D01*
X3675300Y4739171D02*
X3994871Y4419600D01*
X4508500D01*
X4683760Y4244340D01*
X4500880Y1192405D02*
Y1314330D01*
X4495800Y1187325D02*
X4500880Y1192405D01*
Y1314330D02*
X4559300Y1372750D01*
X4257704Y5240020D02*
X4353560D01*
X4118004Y5379720D02*
X4257704Y5240020D01*
X4107180Y5379720D02*
X4118004D01*
X5033900Y3373800D02*
X5142820D01*
X4602480Y805180D02*
X4642954Y845654D01*
X4254500Y805180D02*
X4602480D01*
X4140200Y690880D02*
X4254500Y805180D01*
X4642954Y845654D02*
Y1456404D01*
X4429760Y734060D02*
X4655820D01*
X4733920Y812160D02*
Y1496700D01*
X4655820Y734060D02*
X4733920Y812160D01*
X4392200Y696500D02*
X4429760Y734060D01*
X4280885Y1672140D02*
X4309420Y1700675D01*
X4280885Y1639285D02*
Y1672140D01*
X4241800Y1600200D02*
X4280885Y1639285D01*
X4642954Y1456404D02*
Y2326474D01*
X4559300Y1372750D02*
X4642954Y1456404D01*
X4293050Y1372750D02*
X4559300D01*
X4642954Y2326474D02*
X4730099Y2413619D01*
X4251800Y1470250D02*
X4290550D01*
X4204300Y1422750D02*
X4251800Y1470250D01*
X4140550Y1422750D02*
X4204300D01*
X4089050D02*
X4140550D01*
X4051300Y1460500D02*
X4089050Y1422750D01*
X4241800Y1524000D02*
Y1600200D01*
X5073948Y3822700D02*
X5512720Y4261472D01*
X5569572D01*
X5006340Y3822700D02*
X5073948D01*
X2446965Y351665D02*
Y661345D01*
X4285620Y2500000D02*
X4309168D01*
X2446965Y661345D02*
X4285620Y2500000D01*
X4435100Y2570740D02*
Y2675000D01*
X4324360Y2460000D02*
X4325737D01*
X4425100Y2559363D01*
X2730500Y408116D02*
Y866140D01*
X4324360Y2460000D01*
X4425100Y2560740D02*
X4435100Y2570740D01*
X4425100Y2559363D02*
Y2560740D01*
X4535100Y2531040D02*
Y2675000D01*
X3181700Y1177640D02*
X4535100Y2531040D01*
X3181700Y336400D02*
Y1177640D01*
X4585100Y2500448D02*
Y2675000D01*
X4051300Y2438400D02*
Y2794000D01*
X3530005Y1917105D02*
X4051300Y2438400D01*
X2488605Y1917105D02*
X3530005D01*
X2514600Y1856740D02*
X3545840D01*
X4229100Y2540000D01*
X4292600D01*
X1536700Y878840D02*
X2514600Y1856740D01*
X2931700Y996220D02*
X4485100Y2549620D01*
Y2675000D01*
X2931700Y336400D02*
Y996220D01*
X4140200Y5598160D02*
X4178300Y5636260D01*
X3906520Y5598160D02*
X4140200D01*
X3675300Y5366940D02*
X3906520Y5598160D01*
X4899660Y5529580D02*
X4940300Y5570220D01*
X4391660Y5529580D02*
X4899660D01*
X4940300Y5570220D02*
Y5778500D01*
X4432300Y5570220D02*
Y5778500D01*
X4391660Y5529580D02*
X4432300Y5570220D01*
X3936016Y5529580D02*
X4391660D01*
X7256780Y4152900D02*
X7419200D01*
X5920740Y2877820D02*
X5981700D01*
X7256780Y4152900D01*
X4572800Y4692180D02*
Y4761200D01*
X4521200Y4640580D02*
X4572800Y4692180D01*
X3743960Y4757420D02*
Y5337524D01*
Y4757420D02*
X4028440Y4472940D01*
X4450080D01*
X4521200Y4587240D02*
Y4640580D01*
X4450080Y4472940D02*
X4521200Y4544060D01*
Y4587240D01*
X4650740Y3771900D02*
X5140960Y4262120D01*
X4856480D02*
X5140960D01*
X4704080Y4414520D02*
X4856480Y4262120D01*
X5140960D02*
X5168651Y4289811D01*
Y4475500D01*
X4622800Y4414520D02*
X4704080D01*
X3743960Y5337524D02*
X3936016Y5529580D01*
X769620Y3970020D02*
X4079240D01*
X762000Y3977640D02*
X769620Y3970020D01*
X4140200Y338400D02*
Y690880D01*
X4178300Y5921930D02*
X4190016Y5933646D01*
X4674584D02*
X4686300Y5921930D01*
X4178300Y5778500D02*
Y5921930D01*
X4190016Y5933646D02*
X4674584D01*
X4686300Y5778500D02*
Y5921930D01*
X612000Y3977640D02*
Y4295000D01*
X647700Y4330700D01*
X4597400Y2366592D02*
X4685100Y2454292D01*
X6123940Y1684020D02*
X7150100Y657860D01*
X6123940Y1684020D02*
Y2194560D01*
X5791200Y2527300D02*
X6123940Y2194560D01*
X6045200Y1612900D02*
Y2108200D01*
X5231318Y2922082D02*
X6045200Y2108200D01*
Y1612900D02*
X6896100Y762000D01*
Y254000D02*
Y762000D01*
X5237480Y3241040D02*
X6177831D01*
X5209913Y3268607D02*
X5237480Y3241040D01*
X6177831D02*
X6493700Y3556909D01*
X5177852Y3268607D02*
X5209913D01*
X5177659Y3268800D02*
X5177852Y3268607D01*
X5038900Y3268800D02*
X5177659D01*
X4081780Y3373120D02*
X4185620D01*
X4186300Y3373800D01*
X5599120Y2648260D02*
Y2709220D01*
X5720080Y2527300D02*
X5791200D01*
X5599120Y2648260D02*
X5720080Y2527300D01*
X5033900Y2873800D02*
X5175460D01*
X5971540Y1541780D02*
Y2077720D01*
X5175460Y2873800D02*
X5971540Y2077720D01*
X5035618Y2922082D02*
X5231318D01*
X5890260Y1489605D02*
X6388100Y991765D01*
X5123198Y2821922D02*
X5890260Y2054860D01*
Y1489605D02*
Y2054860D01*
X5971540Y1541780D02*
X6642100Y871220D01*
X5033900Y2973800D02*
X5334540D01*
X5599120Y2709220D01*
X5723580Y2655880D02*
X5725160Y2654300D01*
X5723580Y2655880D02*
Y2714300D01*
X5414080Y3023800D02*
X5723580Y2714300D01*
X5033900Y3023800D02*
X5414080D01*
X5033900Y3073800D02*
X5460600D01*
X6212840Y1752600D02*
Y2321560D01*
X5460600Y3073800D02*
X6212840Y2321560D01*
X5519820Y3123800D02*
X6289651Y2353969D01*
Y1774849D02*
Y2353969D01*
X5033900Y3123800D02*
X5519820D01*
X5033900Y2823800D02*
X5035778Y2821922D01*
X5123198D01*
X2654300Y4117340D02*
X2722880Y4048760D01*
X4792045Y4541520D02*
X4854265Y4479300D01*
X4622800Y4533900D02*
Y4541520D01*
Y4761200D01*
X4630420Y4541520D02*
X4792045D01*
X4622800Y4533900D02*
X4630420Y4541520D01*
X4508500Y4419600D02*
X4622800Y4533900D01*
X3675300Y4739171D02*
Y5366940D01*
X4178300Y5636260D02*
Y5778500D01*
X3995420Y2794688D02*
X4069531Y2868799D01*
X3703320Y2458720D02*
X3995420Y2750820D01*
Y2794688D01*
X4110834Y2868799D02*
X4110835Y2868800D01*
X4181300D02*
X4186300Y2873800D01*
X4110835Y2868800D02*
X4181300D01*
X4069531Y2868799D02*
X4110834D01*
X3703320Y2225040D02*
Y2458720D01*
X3609340Y2484120D02*
X3986140Y2860920D01*
X3609340Y2322224D02*
Y2484120D01*
X3986140Y2860920D02*
X3999001D01*
X4061881Y2923800D02*
X4186300D01*
X3999001Y2860920D02*
X4061881Y2923800D01*
X4058380Y2973800D02*
X4186300D01*
X4733920Y1496700D02*
X4815816Y1414804D01*
X4859044D01*
X4864100Y1427514D02*
Y1797060D01*
X4859044Y1414804D02*
X4864100Y1419860D01*
X4733920Y1496700D02*
Y2328540D01*
X4864100Y1419860D02*
Y1427514D01*
X822960Y2219960D02*
X3698240D01*
X651700Y2048700D02*
X822960Y2219960D01*
X3698240D02*
X3703320Y2225040D01*
X5207000Y5334000D02*
X5252720D01*
X5448300Y5138420D01*
Y4495800D02*
Y5138420D01*
X5539740Y4467860D02*
Y5293360D01*
X4988560Y3957320D02*
X5029200D01*
X5539740Y4467860D01*
X4740100Y3654414D02*
Y3708860D01*
X4988560Y3957320D01*
X4699000Y3669882D02*
Y3746500D01*
X5448300Y4495800D01*
X4650740Y3678190D02*
Y3771900D01*
X5033900Y2923800D02*
X5035618Y2922082D01*
X6642100Y254000D02*
Y871220D01*
X7150100Y254000D02*
Y657860D01*
X6212840Y1752600D02*
X7404100Y561340D01*
Y254000D02*
Y561340D01*
X4785100Y3522600D02*
Y3677660D01*
X4996180Y3888740D02*
X5072380D01*
X4785100Y3677660D02*
X4996180Y3888740D01*
X4835100Y3651460D02*
X5006340Y3822700D01*
X5072380Y3888740D02*
X5631180Y4447540D01*
X4835100Y3522600D02*
Y3651460D01*
X4685100Y3655982D02*
X4699000Y3669882D01*
X4735100Y3649414D02*
X4740100Y3654414D01*
X4635100Y3662550D02*
X4650740Y3678190D01*
X4605020Y3789680D02*
X4683760Y3868420D01*
X4585100Y3676190D02*
X4605020Y3696110D01*
Y3789680D01*
X4683760Y3868420D02*
Y4244340D01*
X4735100Y3522600D02*
Y3649414D01*
X4685100Y3522600D02*
Y3655982D01*
Y3522600D02*
X4685100Y3522600D01*
X5631180Y4447540D02*
Y5430520D01*
X5008880Y3754120D02*
X5849620D01*
X4885100Y3630340D02*
X5008880Y3754120D01*
X4885100Y3522600D02*
Y3630340D01*
X5849620Y3754120D02*
X6243700Y4148200D01*
X5194300Y5638800D02*
X5539740Y5293360D01*
X5448300Y5613400D02*
Y5778500D01*
Y5613400D02*
X5631180Y5430520D01*
X3591560Y2298700D02*
Y2304444D01*
X3609340Y2322224D01*
X269240Y2296160D02*
X3594100D01*
X266700Y2298700D02*
X269240Y2296160D01*
X266700Y2048700D02*
X651700D01*
X1536700Y469900D02*
Y878840D01*
X4309168Y2500000D02*
X4385100Y2575932D01*
X4292600Y2540000D02*
X4335100Y2582500D01*
Y2675000D01*
X4785100Y2379720D02*
Y2675000D01*
X4733920Y2328540D02*
X4785100Y2379720D01*
X4319200Y2045900D02*
X4497000D01*
X4108950Y1835650D02*
X4319200Y2045900D01*
X4108950Y1618750D02*
Y1835650D01*
X4885100Y2565780D02*
Y2675000D01*
Y2565780D02*
X4886160Y2564720D01*
X4497000Y2045900D02*
X4546600Y2095500D01*
Y2405380D01*
X4635100Y2493880D01*
X4730099Y2413619D02*
Y2599534D01*
X4730100Y2599535D01*
Y2670000D02*
X4735100Y2675000D01*
X4730100Y2599535D02*
Y2670000D01*
X4635100Y2493880D02*
Y2675000D01*
X4685100Y2454292D02*
Y2675000D01*
X5033900Y3273800D02*
X5038900Y3268800D01*
X3986140Y4373000D02*
X4485100Y3874040D01*
X3035300Y4373000D02*
X3986140D01*
X4485100Y3522600D02*
Y3874040D01*
X4353560Y5240020D02*
X4372800Y5220780D01*
Y5156200D02*
Y5220780D01*
X2654300Y4117340D02*
Y4373000D01*
X3261360Y2806700D02*
Y3088639D01*
X3182000Y3168000D02*
X3261360Y3088639D01*
X3182000Y3168000D02*
Y3168000D01*
Y3168000D02*
X3237800Y3223800D01*
X4186300D01*
X3261360Y2806700D02*
X3271520Y2796540D01*
X4081100Y2823800D02*
X4186300D01*
X4051300Y2794000D02*
X4081100Y2823800D01*
X4335100Y3522600D02*
Y3633184D01*
X4323384Y3644900D02*
X4335100Y3633184D01*
X4535100Y3522600D02*
Y3643700D01*
X2852637Y3259037D02*
X2867400Y3273800D01*
X2852637Y2979637D02*
Y3259037D01*
X2867400Y3273800D02*
X4186300D01*
X2801000Y2928000D02*
X2852637Y2979637D01*
X2654300Y2928000D02*
X2801000D01*
X3044800Y3168000D02*
X3182000D01*
X2954800Y3133000D02*
X3094900D01*
X4140550Y1282350D02*
Y1372750D01*
X4238100Y5083700D02*
X4297800D01*
X4572800Y5156200D02*
X4575300Y5158700D01*
Y5220684D01*
X4587016Y5232400D01*
X2431700Y336400D02*
X2446965Y351665D01*
X2681700Y336400D02*
Y359316D01*
X2730500Y408116D01*
X4385100Y2575932D02*
Y2675000D01*
X6388100Y254000D02*
Y991765D01*
X6289651Y1774849D02*
X7658100Y406400D01*
Y254000D02*
Y406400D01*
X4854265Y4479300D02*
X4943225D01*
X6493700Y3556909D02*
Y5613200D01*
X6500400Y5619900D01*
X6243700Y4148200D02*
Y5613200D01*
X6250400Y5619900D01*
X4392200Y336400D02*
Y696500D01*
X4140200Y338400D02*
X4142200Y336400D01*
X1286700Y469900D02*
Y715200D01*
X2488605Y1917105D01*
X4585100Y3522600D02*
Y3676190D01*
X4472800Y5156200D02*
Y5230000D01*
X4422800Y4689500D02*
Y4761200D01*
X5398818Y5792804D02*
X5435600Y5756022D01*
X5194300Y5638800D02*
Y5778500D01*
X5430711Y5760911D02*
X5448300Y5778500D01*
X4108950Y1618750D02*
X4131800Y1595900D01*
Y1530250D02*
Y1595900D01*
X4139300Y1522750D02*
X4140550D01*
X4131800Y1530250D02*
X4139300Y1522750D01*
X4293050D02*
X4293675Y1523375D01*
X4533275D01*
X4533900Y1524000D01*
X7975600Y4152900D02*
X8026400Y4203700D01*
X7569200Y4152900D02*
X7975600D01*
X4635100Y3522600D02*
Y3662550D01*
D50*
X3331853Y3134987D02*
X3435453D01*
X3438620Y3131820D01*
X3329940Y3136900D02*
X3331853Y3134987D01*
X488700Y2833620D02*
X1221740D01*
X1254760Y2800600D01*
X269240Y3053080D02*
Y3255200D01*
Y3053080D02*
X488700Y2833620D01*
X269240Y3505200D02*
X1229360D01*
X1254760Y3530600D01*
X4347493Y3738880D02*
X4348480D01*
X4330073Y3756300D02*
X4347493Y3738880D01*
X4330073Y3756300D02*
Y3846187D01*
X4189420Y1700675D02*
X4190210Y1701465D01*
Y1820390D02*
X4191000Y1821180D01*
X4190210Y1701465D02*
Y1820390D01*
X4872973Y2363487D02*
X4876800Y2359660D01*
X4872973Y2363487D02*
Y2468001D01*
X4865100Y2475874D02*
X4872973Y2468001D01*
X4021371Y5089203D02*
X4022374Y5088200D01*
X3917637Y5089203D02*
X4021371D01*
X3916680Y5090160D02*
X3917637Y5089203D01*
X8326515Y2910840D02*
X8331515D01*
X8346515Y2978391D02*
X8375804Y3007680D01*
X8331515Y2910840D02*
X8346515Y2925840D01*
Y2978391D01*
X8375804Y3007680D02*
X8449900D01*
X3826335Y1463040D02*
X3828875Y1460500D01*
X3716020Y1463040D02*
X3826335D01*
X3713480Y1465580D02*
X3716020Y1463040D01*
X3799926Y1258230D02*
X3800855Y1259160D01*
X3676310Y1258230D02*
X3799926D01*
X3675380Y1257300D02*
X3676310Y1258230D01*
X8534400Y4203700D02*
X8536940Y4201160D01*
Y3939540D02*
Y4201160D01*
X5825639Y3530600D02*
X5933547D01*
X8425640Y3266900D02*
X8458171D01*
X8425180Y3266440D02*
X8425640Y3266900D01*
X5200633Y3323607D02*
X5261593D01*
X7962900Y2810840D02*
X7964170Y2809570D01*
Y2706370D02*
X7965440Y2705100D01*
X7964170Y2706370D02*
Y2809570D01*
X7694781Y2735580D02*
X7696200Y2734161D01*
X4280964Y4585237D02*
X4281501Y4585774D01*
X4194077Y4585237D02*
X4280964D01*
X4193540Y4584700D02*
X4194077Y4585237D01*
X2556070Y4898830D02*
X2653470D01*
X1153160Y4328160D02*
X1155700Y4330700D01*
X1153160Y4058920D02*
Y4328160D01*
X2814617Y4173923D02*
X2822940Y4165600D01*
X2814617Y4173923D02*
Y4270630D01*
X3940540Y3083560D02*
X3995420D01*
X4020820Y3058160D01*
X3992880Y1602740D02*
Y1668780D01*
X3919220Y3062240D02*
X3940540Y3083560D01*
X3915910Y3058930D02*
X3919220Y3062240D01*
X3810770Y3058930D02*
X3915910D01*
X3807460Y3055620D02*
X3810770Y3058930D01*
X2654300Y3187700D02*
Y3295567D01*
X3044800Y2812440D02*
Y2928000D01*
X3271520Y2501900D02*
Y2631141D01*
X2654300Y2425700D02*
Y2544781D01*
X3957320Y1083930D02*
Y1237912D01*
Y812346D02*
Y1076960D01*
Y812346D02*
X3961946Y807720D01*
X4351020Y1021080D02*
X4354142Y1024202D01*
X4492678D01*
X4495800Y1027325D01*
X3936072Y1259160D02*
X3957320Y1237912D01*
X3936072Y1259160D02*
X3953875Y1276963D01*
X5312406Y3454666D02*
Y3516626D01*
X5307060Y3449320D02*
X5312406Y3454666D01*
X5346700Y3550920D02*
X5639921D01*
X5312406Y3516626D02*
X5346700Y3550920D01*
X7696200Y2899559D02*
X7703820Y2891939D01*
X7722721Y2910840D01*
X7357180Y2915920D02*
X7365360Y2907740D01*
X3953875Y1460500D02*
X4010660D01*
X3953875Y1276963D02*
Y1460500D01*
X2947940Y4165600D02*
X3326047D01*
X3384467Y4224020D01*
X3385820D01*
X3213100Y5095240D02*
X3670300Y5552440D01*
X3213100Y4902200D02*
Y5095240D01*
X2079684Y5082540D02*
X2118360D01*
X2067560Y5094664D02*
X2079684Y5082540D01*
X2067560Y5094664D02*
Y5229860D01*
X1806899Y5082540D02*
X1818100Y5093741D01*
X1615440Y5082540D02*
X1806899D01*
X1818100Y5093741D02*
Y5231860D01*
X1612900Y5080000D02*
X1615440Y5082540D01*
X3981300Y2921000D02*
X4000419Y2940120D01*
X3919220Y2921000D02*
X3981300D01*
X3581400Y2556524D02*
X3896720Y2871844D01*
Y2914740D01*
X3919220Y2937240D01*
X3544589Y2519714D02*
X3581400Y2556524D01*
Y2673320D01*
X3491247Y2515887D02*
X3495074Y2519714D01*
X4990100Y2475874D02*
X4993640Y2472334D01*
Y2225040D02*
Y2472334D01*
X3495074Y2519714D02*
X3544589D01*
X3987800Y3733800D02*
X4193000D01*
D51*
X0Y7100D02*
X9000000D01*
X0Y6007100D02*
X9000000D01*
Y7100D02*
Y6007100D01*
X0Y7100D02*
Y6007100D01*
D52*
X4993640Y2092960D02*
Y2225040D01*
X8326515Y2413754D02*
Y2910840D01*
X8370449Y2369820D02*
X8615680D01*
X8326515Y2413754D02*
X8370449Y2369820D01*
X7611419Y1176981D02*
X8371601D01*
X7564120Y2402840D02*
X7666520Y2300440D01*
Y2164080D02*
Y2300440D01*
X7609840Y1178560D02*
X7611419Y1176981D01*
X7385199Y2402840D02*
X7564120D01*
X7574280Y2735580D02*
X7694781D01*
X7503567Y2664867D02*
X7574280Y2735580D01*
X7397596Y2664867D02*
X7503567D01*
X7385199Y2639363D02*
Y2651760D01*
X7384490Y2403550D02*
Y2638653D01*
Y2651760D02*
X7397596Y2664867D01*
X7384490Y2638653D02*
X7385199Y2639363D01*
X7210857Y2166417D02*
Y2393896D01*
X7219801Y2402840D01*
X7208520Y2164080D02*
X7210857Y2166417D01*
X7728589Y1325550D02*
X7731760Y1322379D01*
X7447280Y1328420D02*
X7450150Y1325550D01*
X7728589D01*
X7447280Y1328420D02*
Y1495320D01*
X7969180Y1323340D02*
Y1323993D01*
X7731760Y1322379D02*
Y1323993D01*
X7969180D01*
X7437520Y1505080D02*
Y2164080D01*
X7442544Y1500056D02*
X7447280Y1495320D01*
X8162380Y2244000D02*
Y2908340D01*
X8159880Y2910840D02*
X8162380Y2908340D01*
X8156515Y2910840D02*
X8159880D01*
X8162380Y2244000D02*
X8286020Y2120360D01*
X8615140D01*
X8004880Y2910880D02*
X8156475D01*
X8156515Y2910840D01*
X8004840D02*
X8004880Y2910880D01*
X7962900Y2910840D02*
X8004840D01*
X7219801Y2402840D02*
Y2651760D01*
X7210474Y2661086D02*
Y2697470D01*
Y2661086D02*
X7219801Y2651760D01*
X7207180Y2700764D02*
Y2915920D01*
Y2700764D02*
X7210474Y2697470D01*
X8361840Y1327220D02*
X8371840D01*
X8357960Y1323340D02*
X8361840Y1327220D01*
X8119180Y1323340D02*
X8357960D01*
X7722721Y2910840D02*
X7962900D01*
X7226351Y2402090D02*
X7227101Y2402840D01*
X6790358Y2401340D02*
X6791108Y2402090D01*
X7226351D01*
X7359680Y2907740D02*
Y2911830D01*
Y2907740D02*
X7688020D01*
X7696200Y2899559D01*
X2067560Y5229860D02*
X2068100Y5230400D01*
Y5326920D01*
X1549400Y5080000D02*
X1612900D01*
D53*
X4864100Y1957060D02*
X4993640Y2086600D01*
Y2092960D01*
X5432560Y3332980D02*
X5433060Y3332480D01*
X5432060Y3449320D02*
X5432560Y3448820D01*
Y3332980D02*
Y3448820D01*
X3756660Y3380740D02*
X3756993Y3380407D01*
X3862467D02*
X3862800Y3380075D01*
X3756993Y3380407D02*
X3862467D01*
X4157023Y963617D02*
X4157980Y962660D01*
X4155440Y1059825D02*
X4157023Y1058241D01*
Y963617D02*
Y1058241D01*
X5660241Y3530600D02*
Y3648561D01*
X3987800Y3380075D02*
Y3733800D01*
X3670300Y5552440D02*
Y5778500D01*
X5660241Y3648561D02*
X5694680Y3683000D01*
X6413500D01*
X4774000Y5360670D02*
X4928870D01*
X5075800Y4982600D02*
Y5213740D01*
X4928870Y5360670D02*
X5075800Y5213740D01*
D54*
X8458171Y3266900D02*
X8486600D01*
D55*
X7219801Y2402840D02*
X7227101D01*
X8615140Y2120360D02*
X8615680Y2119820D01*
X2068100Y5326920D02*
Y5708800D01*
X1818100Y5315680D02*
Y5708800D01*
X1295400Y5080000D02*
X1549400D01*
X901700Y5473700D02*
X1295400Y5080000D01*
X7183263Y4927600D02*
Y5209650D01*
X7258201Y5284587D01*
X7508201Y4940476D02*
X7521077Y4927600D01*
X7538335D01*
X7508201Y4940476D02*
Y5556100D01*
X7538335Y4927600D02*
X7562935Y4952200D01*
X7885900D01*
X8280400Y5346700D01*
X7258201Y5284587D02*
Y5556100D01*
X7885900Y4952200D02*
X8280400Y5346700D01*
D56*
X2920459Y5659459D02*
X2969800Y5708800D01*
X2883679Y5659459D02*
X2920459D01*
X2868185Y5221869D02*
Y5643965D01*
X2883679Y5659459D01*
Y5206375D02*
X2895005D01*
X2868185Y5221869D02*
X2883679Y5206375D01*
X2895005D02*
X2914800Y5186580D01*
Y5181600D02*
Y5186580D01*
X2805921Y5206375D02*
X2821415Y5221869D01*
X2805921Y5692717D02*
X2821415Y5677223D01*
Y5221869D02*
Y5677223D01*
X2735883Y5692717D02*
X2805921D01*
X2719800Y5708800D02*
X2735883Y5692717D01*
X2774800Y5186580D02*
X2794595Y5206375D01*
X2774800Y5181600D02*
Y5186580D01*
X2794595Y5206375D02*
X2805921D01*
X2868185Y4962769D02*
Y5141330D01*
Y4962769D02*
X2883679Y4947275D01*
X2886299D02*
X2908300Y4925274D01*
Y4898000D02*
Y4925274D01*
X2883679Y4947275D02*
X2886299D01*
X2868185Y5141330D02*
X2883679Y5156825D01*
X2895005D01*
X2914800Y5176620D01*
Y5181600D01*
X2803301Y4947275D02*
X2805921D01*
X2821415Y4962769D01*
Y5141330D01*
X2805921Y5156825D02*
X2821415Y5141330D01*
X2794595Y5156825D02*
X2805921D01*
X2781300Y4898000D02*
Y4925274D01*
X2803301Y4947275D01*
X2774800Y5176620D02*
X2794595Y5156825D01*
D57*
X1818100Y5231860D02*
Y5315680D01*
D58*
X4140550Y1269650D02*
Y1282350D01*
D59*
X266700Y2298700D02*
D03*
X269240Y3505200D02*
D03*
X8615680Y2369820D02*
D03*
D60*
X266700Y2048700D02*
D03*
X269240Y3255200D02*
D03*
X6000400Y5619900D02*
D03*
X4642200Y336400D02*
D03*
X1036700Y469900D02*
D03*
X8615680Y2119820D02*
D03*
X3181700Y336400D02*
D03*
X2931700D02*
D03*
X2681700D02*
D03*
X4392200D02*
D03*
X4142200D02*
D03*
X1818100Y5708800D02*
D03*
X7508201Y5556100D02*
D03*
X2719800Y5708800D02*
D03*
X1536700Y469900D02*
D03*
X1286700D02*
D03*
X6500400Y5619900D02*
D03*
X6250400D02*
D03*
D61*
X3924300Y5778500D02*
D03*
X4686300D02*
D03*
X4178300D02*
D03*
X4432300D02*
D03*
X5448300D02*
D03*
X4940300D02*
D03*
X5194300D02*
D03*
X6134100Y254000D02*
D03*
X6388100D02*
D03*
X6642100D02*
D03*
X6896100D02*
D03*
X7150100D02*
D03*
X7404100D02*
D03*
X7658100D02*
D03*
D62*
X3892200Y336400D02*
D03*
X6750400Y5619900D02*
D03*
X2431700Y336400D02*
D03*
X2068100Y5708800D02*
D03*
X7258201Y5556100D02*
D03*
X2969800Y5708800D02*
D03*
X1786700Y469900D02*
D03*
D63*
X3670300Y5778500D02*
D03*
X5880100Y254000D02*
D03*
D64*
X4330073Y3846187D02*
D03*
X3329940Y3136900D02*
D03*
X4419600Y2222500D02*
D03*
X4546600Y1965960D02*
D03*
X5933547Y3530600D02*
D03*
X7609840Y1178560D02*
D03*
X4198620Y4833620D02*
D03*
X2555240Y4899660D02*
D03*
X3756660Y3380740D02*
D03*
X4157980Y962660D02*
D03*
X4107180Y5379720D02*
D03*
X5920740Y2877820D02*
D03*
X4079240Y3970020D02*
D03*
X5725160Y2654300D02*
D03*
X4864100Y1419860D02*
D03*
X3698240Y2219960D02*
D03*
X3594100Y2296160D02*
D03*
X5207000Y5334000D02*
D03*
X4533900Y1524000D02*
D03*
D65*
X4993640Y2092960D02*
D03*
X7447280Y1328420D02*
D03*
X6790358Y2401340D02*
D03*
X3491247Y2515887D02*
D03*
X6413500Y3683000D02*
D03*
X3987800Y3733800D02*
D03*
X5080000Y4978400D02*
D03*
D66*
X4191000Y1821180D02*
D03*
X4876800Y2359660D02*
D03*
X3713480Y1465580D02*
D03*
X3675380Y1257300D02*
D03*
X8536940Y3939540D02*
D03*
X8425180Y3266440D02*
D03*
X5433060Y3332480D02*
D03*
X5295900Y3319780D02*
D03*
X7965440Y2705100D02*
D03*
X1153160Y4058920D02*
D03*
X3992880Y1668780D02*
D03*
X3807460Y3055620D02*
D03*
X3271520Y2501900D02*
D03*
X3961946Y807720D02*
D03*
X4351020Y1021080D02*
D03*
X4114558Y5232158D02*
D03*
D67*
X3916680Y5090160D02*
D03*
X4518660Y5351780D02*
D03*
X4577080Y4193540D02*
D03*
X4193540Y4584700D02*
D03*
X2814617Y4271983D02*
D03*
X2654300Y3295567D02*
D03*
X3044800Y2812440D02*
D03*
X2654300Y2425700D02*
D03*
X5569572Y4261472D02*
D03*
X4521200Y4587240D02*
D03*
X4622800Y4414520D02*
D03*
X3385820Y4224020D02*
D03*
X3213100Y4902200D02*
D03*
D68*
X4552800Y4903700D02*
D03*
Y5013700D02*
D03*
X4442800D02*
D03*
Y4903700D02*
D03*
%TF.MD5,0b3230447600c63bcdb6853209fbd2a7*%
M02*
