%TF.GenerationSoftware,Altium Limited,Altium Designer,26.2.0 (7)*%
G04 Layer_Color=65535*
%FSLAX45Y45*%
%MOMM*%
%TF.SameCoordinates,3DE98A4C-37D3-4DC4-9310-D33B0FF0074B*%
%TF.FilePolarity,Positive*%
%TF.FileFunction,Legend,Top*%
%TF.Part,Single*%
G01*
G75*
%TA.AperFunction,NonConductor*%
%ADD51C,0.25400*%
%ADD69C,0.25000*%
%ADD70C,0.60000*%
%ADD71C,0.20000*%
%ADD72C,0.12700*%
D51*
X6873754Y2201364D02*
Y2118057D01*
X6890415Y2101396D01*
X6923737D01*
X6940399Y2118057D01*
Y2201364D01*
X7040366Y2101396D02*
X6973721D01*
X7040366Y2168041D01*
Y2184703D01*
X7023705Y2201364D01*
X6990383D01*
X6973721Y2184703D01*
X1843435Y2670602D02*
X1826774Y2687264D01*
X1793451D01*
X1776790Y2670602D01*
Y2603957D01*
X1793451Y2587296D01*
X1826774D01*
X1843435Y2603957D01*
X1943403Y2587296D02*
X1876757D01*
X1943403Y2653941D01*
Y2670602D01*
X1926741Y2687264D01*
X1893419D01*
X1876757Y2670602D01*
X1976725D02*
X1993387Y2687264D01*
X2026709D01*
X2043370Y2670602D01*
Y2653941D01*
X2026709Y2637280D01*
X2010048D01*
X2026709D01*
X2043370Y2620619D01*
Y2603957D01*
X2026709Y2587296D01*
X1993387D01*
X1976725Y2603957D01*
X163307Y2736051D02*
X112524D01*
X137915D01*
Y2609092D01*
X112524Y2583700D01*
X87132D01*
X61740Y2609092D01*
X214091Y2583700D02*
X264874D01*
X239483D01*
Y2736051D01*
X214091Y2710659D01*
X341050D02*
X366441Y2736051D01*
X417225D01*
X442617Y2710659D01*
Y2609092D01*
X417225Y2583700D01*
X366441D01*
X341050Y2609092D01*
Y2710659D01*
X110339Y3809184D02*
X77016D01*
X93677D01*
Y3725877D01*
X77016Y3709216D01*
X60355D01*
X43694Y3725877D01*
X143661Y3809184D02*
X210306D01*
Y3792523D01*
X143661Y3725877D01*
Y3709216D01*
X2545594Y5142684D02*
Y5059377D01*
X2562255Y5042716D01*
X2595577D01*
X2612239Y5059377D01*
Y5142684D01*
X2695545Y5042716D02*
Y5142684D01*
X2645561Y5092700D01*
X2712206D01*
X6929634Y4743904D02*
Y4643936D01*
X6979617D01*
X6996279Y4660597D01*
Y4727243D01*
X6979617Y4743904D01*
X6929634D01*
X7096246Y4643936D02*
X7029601D01*
X7096246Y4710581D01*
Y4727243D01*
X7079585Y4743904D01*
X7046263D01*
X7029601Y4727243D01*
X4586740Y864416D02*
Y964384D01*
X4636724D01*
X4653385Y947723D01*
Y914400D01*
X4636724Y897739D01*
X4586740D01*
X4620063D02*
X4653385Y864416D01*
X4686708D02*
X4720031D01*
X4703370D01*
Y964384D01*
X4686708Y947723D01*
X4770015D02*
X4786676Y964384D01*
X4819998D01*
X4836660Y947723D01*
Y881077D01*
X4819998Y864416D01*
X4786676D01*
X4770015Y881077D01*
Y947723D01*
X7707479Y1001063D02*
X7690817Y1017724D01*
X7657495D01*
X7640834Y1001063D01*
Y934417D01*
X7657495Y917756D01*
X7690817D01*
X7707479Y934417D01*
X7790785Y917756D02*
Y1017724D01*
X7740801Y967740D01*
X7807446D01*
X8156862Y3074216D02*
Y3174184D01*
X8206846D01*
X8223507Y3157523D01*
Y3124200D01*
X8206846Y3107539D01*
X8156862D01*
X8190184D02*
X8223507Y3074216D01*
X8256830D02*
X8290152D01*
X8273491D01*
Y3174184D01*
X8256830Y3157523D01*
X8340136Y3074216D02*
X8373458D01*
X8356797D01*
Y3174184D01*
X8340136Y3157523D01*
X6920079Y2672383D02*
X6903417Y2689044D01*
X6870095D01*
X6853434Y2672383D01*
Y2605737D01*
X6870095Y2589076D01*
X6903417D01*
X6920079Y2605737D01*
X6953401Y2672383D02*
X6970063Y2689044D01*
X7003385D01*
X7020046Y2672383D01*
Y2655721D01*
X7003385Y2639060D01*
X6986724D01*
X7003385D01*
X7020046Y2622399D01*
Y2605737D01*
X7003385Y2589076D01*
X6970063D01*
X6953401Y2605737D01*
X8901699Y3673220D02*
Y3706542D01*
Y3689881D01*
X8818392D01*
X8801731Y3706542D01*
Y3723203D01*
X8818392Y3739865D01*
X8801731Y3639897D02*
Y3606574D01*
Y3623236D01*
X8901699D01*
X8885037Y3639897D01*
X8335181Y1945075D02*
X8284397D01*
X8309789D01*
Y1818117D01*
X8284397Y1792725D01*
X8259006D01*
X8233614Y1818117D01*
X8385964Y1792725D02*
X8436748D01*
X8411356D01*
Y1945075D01*
X8385964Y1919683D01*
X8512923Y1792725D02*
X8563707D01*
X8538315D01*
Y1945075D01*
X8512923Y1919683D01*
X5173375Y3685843D02*
X5156714Y3702504D01*
X5123391D01*
X5106730Y3685843D01*
Y3619197D01*
X5123391Y3602536D01*
X5156714D01*
X5173375Y3619197D01*
X5273343Y3602536D02*
X5206697D01*
X5273343Y3669181D01*
Y3685843D01*
X5256681Y3702504D01*
X5223359D01*
X5206697Y3685843D01*
X5373310Y3602536D02*
X5306665D01*
X5373310Y3669181D01*
Y3685843D01*
X5356649Y3702504D01*
X5323327D01*
X5306665Y3685843D01*
X2434439Y5904684D02*
X2401116D01*
X2417777D01*
Y5821377D01*
X2401116Y5804716D01*
X2384455D01*
X2367794Y5821377D01*
X2467761D02*
X2484423Y5804716D01*
X2517745D01*
X2534406Y5821377D01*
Y5888023D01*
X2517745Y5904684D01*
X2484423D01*
X2467761Y5888023D01*
Y5871361D01*
X2484423Y5854700D01*
X2534406D01*
X4381605Y1899098D02*
X4364944Y1915759D01*
X4331622D01*
X4314960Y1899098D01*
Y1832453D01*
X4331622Y1815791D01*
X4364944D01*
X4381605Y1832453D01*
X4414928Y1815791D02*
X4448251D01*
X4431590D01*
Y1915759D01*
X4414928Y1899098D01*
X4498235D02*
X4514896Y1915759D01*
X4548218D01*
X4564880Y1899098D01*
Y1882436D01*
X4548218Y1865775D01*
X4531557D01*
X4548218D01*
X4564880Y1849114D01*
Y1832453D01*
X4548218Y1815791D01*
X4514896D01*
X4498235Y1832453D01*
X3558645Y1109602D02*
X3541984Y1126264D01*
X3508662D01*
X3492000Y1109602D01*
Y1042957D01*
X3508662Y1026296D01*
X3541984D01*
X3558645Y1042957D01*
X3591968Y1026296D02*
X3625291D01*
X3608630D01*
Y1126264D01*
X3591968Y1109602D01*
X3675275D02*
X3691936Y1126264D01*
X3725258D01*
X3741920Y1109602D01*
Y1042957D01*
X3725258Y1026296D01*
X3691936D01*
X3675275Y1042957D01*
Y1109602D01*
X3806855Y1713684D02*
Y1630377D01*
X3823516Y1613716D01*
X3856839D01*
X3873500Y1630377D01*
Y1713684D01*
X3906823Y1613716D02*
X3940145D01*
X3923484D01*
Y1713684D01*
X3906823Y1697023D01*
X3773285Y882808D02*
X3739963D01*
X3756624D01*
Y799501D01*
X3739963Y782840D01*
X3723301D01*
X3706640Y799501D01*
X3873253Y782840D02*
X3806608D01*
X3873253Y849485D01*
Y866146D01*
X3856592Y882808D01*
X3823269D01*
X3806608Y866146D01*
X2356515Y3232604D02*
Y3215943D01*
X2389837Y3182620D01*
X2423160Y3215943D01*
Y3232604D01*
X2389837Y3182620D02*
Y3132636D01*
X2456483D02*
X2489805D01*
X2473144D01*
Y3232604D01*
X2456483Y3215943D01*
X3830834Y5300164D02*
Y5216857D01*
X3847495Y5200196D01*
X3880817D01*
X3897479Y5216857D01*
Y5300164D01*
X3930801Y5283503D02*
X3947463Y5300164D01*
X3980785D01*
X3997446Y5283503D01*
Y5266841D01*
X3980785Y5250180D01*
X3964124D01*
X3980785D01*
X3997446Y5233519D01*
Y5216857D01*
X3980785Y5200196D01*
X3947463D01*
X3930801Y5216857D01*
X4666494Y2064576D02*
Y2164544D01*
X4716477D01*
X4733139Y2147882D01*
Y2114560D01*
X4716477Y2097899D01*
X4666494D01*
X4699816D02*
X4733139Y2064576D01*
X4766461Y2081237D02*
X4783123Y2064576D01*
X4816445D01*
X4833106Y2081237D01*
Y2147882D01*
X4816445Y2164544D01*
X4783123D01*
X4766461Y2147882D01*
Y2131221D01*
X4783123Y2114560D01*
X4833106D01*
X4859919Y4767116D02*
Y4867084D01*
X4909903D01*
X4926564Y4850423D01*
Y4817100D01*
X4909903Y4800439D01*
X4859919D01*
X4893241D02*
X4926564Y4767116D01*
X4959887Y4850423D02*
X4976548Y4867084D01*
X5009871D01*
X5026532Y4850423D01*
Y4833761D01*
X5009871Y4817100D01*
X5026532Y4800439D01*
Y4783778D01*
X5009871Y4767116D01*
X4976548D01*
X4959887Y4783778D01*
Y4800439D01*
X4976548Y4817100D01*
X4959887Y4833761D01*
Y4850423D01*
X4976548Y4817100D02*
X5009871D01*
X5093480Y4780800D02*
Y4880768D01*
X5143464D01*
X5160125Y4864106D01*
Y4830784D01*
X5143464Y4814122D01*
X5093480D01*
X5126803D02*
X5160125Y4780800D01*
X5193448Y4880768D02*
X5260093D01*
Y4864106D01*
X5193448Y4797461D01*
Y4780800D01*
X4615694Y4268016D02*
Y4367984D01*
X4665677D01*
X4682339Y4351323D01*
Y4318000D01*
X4665677Y4301339D01*
X4615694D01*
X4649016D02*
X4682339Y4268016D01*
X4782306Y4367984D02*
X4748984Y4351323D01*
X4715661Y4318000D01*
Y4284677D01*
X4732323Y4268016D01*
X4765645D01*
X4782306Y4284677D01*
Y4301339D01*
X4765645Y4318000D01*
X4715661D01*
X323094Y3965756D02*
Y4065724D01*
X373077D01*
X389739Y4049063D01*
Y4015740D01*
X373077Y3999079D01*
X323094D01*
X356416D02*
X389739Y3965756D01*
X489706Y4065724D02*
X423061D01*
Y4015740D01*
X456384Y4032401D01*
X473045D01*
X489706Y4015740D01*
Y3982417D01*
X473045Y3965756D01*
X439723D01*
X423061Y3982417D01*
X3777494Y2589216D02*
Y2689184D01*
X3827477D01*
X3844139Y2672522D01*
Y2639200D01*
X3827477Y2622539D01*
X3777494D01*
X3810816D02*
X3844139Y2589216D01*
X3927445D02*
Y2689184D01*
X3877461Y2639200D01*
X3944106D01*
X7295394Y3925116D02*
Y4025084D01*
X7345377D01*
X7362039Y4008423D01*
Y3975100D01*
X7345377Y3958439D01*
X7295394D01*
X7328716D02*
X7362039Y3925116D01*
X7395361Y4008423D02*
X7412023Y4025084D01*
X7445345D01*
X7462006Y4008423D01*
Y3991761D01*
X7445345Y3975100D01*
X7428684D01*
X7445345D01*
X7462006Y3958439D01*
Y3941777D01*
X7445345Y3925116D01*
X7412023D01*
X7395361Y3941777D01*
X2990094Y5207816D02*
Y5307784D01*
X3040077D01*
X3056739Y5291123D01*
Y5257800D01*
X3040077Y5241139D01*
X2990094D01*
X3023416D02*
X3056739Y5207816D01*
X3156706D02*
X3090061D01*
X3156706Y5274461D01*
Y5291123D01*
X3140045Y5307784D01*
X3106723D01*
X3090061Y5291123D01*
X8416955Y1466396D02*
Y1566364D01*
X8466939D01*
X8483600Y1549703D01*
Y1516380D01*
X8466939Y1499719D01*
X8416955D01*
X8450277D02*
X8483600Y1466396D01*
X8516923D02*
X8550245D01*
X8533584D01*
Y1566364D01*
X8516923Y1549703D01*
X186539Y5834077D02*
Y5900723D01*
X169877Y5917384D01*
X136555D01*
X119894Y5900723D01*
Y5834077D01*
X136555Y5817416D01*
X169877D01*
X153216Y5850739D02*
X186539Y5817416D01*
X169877D02*
X186539Y5834077D01*
X286506Y5817416D02*
X219861D01*
X286506Y5884061D01*
Y5900723D01*
X269845Y5917384D01*
X236523D01*
X219861Y5900723D01*
X7772400Y5846777D02*
Y5913423D01*
X7755739Y5930084D01*
X7722416D01*
X7705755Y5913423D01*
Y5846777D01*
X7722416Y5830116D01*
X7755739D01*
X7739077Y5863439D02*
X7772400Y5830116D01*
X7755739D02*
X7772400Y5846777D01*
X7805723Y5830116D02*
X7839045D01*
X7822384D01*
Y5930084D01*
X7805723Y5913423D01*
X5769120Y467880D02*
Y567848D01*
X5819104D01*
X5835765Y551186D01*
Y517864D01*
X5819104Y501202D01*
X5769120D01*
X5935733Y467880D02*
X5869088D01*
X5935733Y534525D01*
Y551186D01*
X5919072Y567848D01*
X5885749D01*
X5869088Y551186D01*
X3336955Y5779316D02*
Y5879284D01*
X3386939D01*
X3403600Y5862623D01*
Y5829300D01*
X3386939Y5812639D01*
X3336955D01*
X3436923Y5779316D02*
X3470245D01*
X3453584D01*
Y5879284D01*
X3436923Y5862623D01*
X2307439Y5333184D02*
X2274116D01*
X2290777D01*
Y5249877D01*
X2274116Y5233216D01*
X2257455D01*
X2240794Y5249877D01*
X2340761Y5316523D02*
X2357423Y5333184D01*
X2390745D01*
X2407406Y5316523D01*
Y5299861D01*
X2390745Y5283200D01*
X2407406Y5266539D01*
Y5249877D01*
X2390745Y5233216D01*
X2357423D01*
X2340761Y5249877D01*
Y5266539D01*
X2357423Y5283200D01*
X2340761Y5299861D01*
Y5316523D01*
X2357423Y5283200D02*
X2390745D01*
X2312785Y882808D02*
X2279463D01*
X2296124D01*
Y799501D01*
X2279463Y782840D01*
X2262801D01*
X2246140Y799501D01*
X2412753Y882808D02*
X2379430Y866146D01*
X2346108Y832824D01*
Y799501D01*
X2362769Y782840D01*
X2396092D01*
X2412753Y799501D01*
Y816162D01*
X2396092Y832824D01*
X2346108D01*
X6993739Y5272224D02*
X6960416D01*
X6977077D01*
Y5188917D01*
X6960416Y5172256D01*
X6943755D01*
X6927094Y5188917D01*
X7093706Y5272224D02*
X7027061D01*
Y5222240D01*
X7060384Y5238901D01*
X7077045D01*
X7093706Y5222240D01*
Y5188917D01*
X7077045Y5172256D01*
X7043723D01*
X7027061Y5188917D01*
X984365Y875188D02*
X951043D01*
X967704D01*
Y791881D01*
X951043Y775220D01*
X934381D01*
X917720Y791881D01*
X1067672Y775220D02*
Y875188D01*
X1017688Y825204D01*
X1084333D01*
X5709039Y5809584D02*
X5675716D01*
X5692377D01*
Y5726278D01*
X5675716Y5709616D01*
X5659055D01*
X5642394Y5726278D01*
X5742361Y5792923D02*
X5759023Y5809584D01*
X5792345D01*
X5809006Y5792923D01*
Y5776261D01*
X5792345Y5759600D01*
X5775684D01*
X5792345D01*
X5809006Y5742939D01*
Y5726278D01*
X5792345Y5709616D01*
X5759023D01*
X5742361Y5726278D01*
X5113942Y2544264D02*
X5147264D01*
X5130603D01*
Y2444296D01*
X5113942D01*
X5147264D01*
X5263893Y2527603D02*
X5247232Y2544264D01*
X5213910D01*
X5197248Y2527603D01*
Y2460957D01*
X5213910Y2444296D01*
X5247232D01*
X5263893Y2460957D01*
X5297216Y2444296D02*
X5330538D01*
X5313877D01*
Y2544264D01*
X5297216Y2527603D01*
X7214985Y3184048D02*
X7148340D01*
Y3134064D01*
X7181663D01*
X7148340D01*
Y3084080D01*
X7248308Y3184048D02*
Y3084080D01*
X7298292D01*
X7314953Y3100741D01*
Y3117402D01*
X7298292Y3134064D01*
X7248308D01*
X7298292D01*
X7314953Y3150725D01*
Y3167386D01*
X7298292Y3184048D01*
X7248308D01*
X7348276Y3084080D02*
X7381598D01*
X7364937D01*
Y3184048D01*
X7348276Y3167386D01*
X8070094Y1561284D02*
Y1461316D01*
X8120077D01*
X8136739Y1477977D01*
Y1544623D01*
X8120077Y1561284D01*
X8070094D01*
X8220045Y1461316D02*
Y1561284D01*
X8170061Y1511300D01*
X8236706D01*
X1590554Y4909004D02*
Y4809036D01*
X1640537D01*
X1657199Y4825697D01*
Y4892343D01*
X1640537Y4909004D01*
X1590554D01*
X1690521Y4892343D02*
X1707183Y4909004D01*
X1740505D01*
X1757166Y4892343D01*
Y4875681D01*
X1740505Y4859020D01*
X1723844D01*
X1740505D01*
X1757166Y4842359D01*
Y4825697D01*
X1740505Y4809036D01*
X1707183D01*
X1690521Y4825697D01*
X7954675Y3133544D02*
Y3033576D01*
X8004659D01*
X8021320Y3050237D01*
Y3116883D01*
X8004659Y3133544D01*
X7954675D01*
X8054643Y3033576D02*
X8087965D01*
X8071304D01*
Y3133544D01*
X8054643Y3116883D01*
X3315516Y3017823D02*
X3298855Y3034484D01*
X3265532D01*
X3248871Y3017823D01*
Y2951177D01*
X3265532Y2934516D01*
X3298855D01*
X3315516Y2951177D01*
X3415484Y2934516D02*
X3348839D01*
X3415484Y3001161D01*
Y3017823D01*
X3398823Y3034484D01*
X3365500D01*
X3348839Y3017823D01*
X3448807Y2934516D02*
X3482129D01*
X3465468D01*
Y3034484D01*
X3448807Y3017823D01*
X4007515Y886763D02*
X3990854Y903424D01*
X3957531D01*
X3940870Y886763D01*
Y820117D01*
X3957531Y803456D01*
X3990854D01*
X4007515Y820117D01*
X4107483Y803456D02*
X4040837D01*
X4107483Y870101D01*
Y886763D01*
X4090821Y903424D01*
X4057499D01*
X4040837Y886763D01*
X4140805D02*
X4157467Y903424D01*
X4190789D01*
X4207450Y886763D01*
Y820117D01*
X4190789Y803456D01*
X4157467D01*
X4140805Y820117D01*
Y886763D01*
X3418945Y3414063D02*
X3402284Y3430724D01*
X3368962D01*
X3352300Y3414063D01*
Y3347417D01*
X3368962Y3330756D01*
X3402284D01*
X3418945Y3347417D01*
X3452268Y3330756D02*
X3485591D01*
X3468930D01*
Y3430724D01*
X3452268Y3414063D01*
X3535575Y3347417D02*
X3552236Y3330756D01*
X3585558D01*
X3602220Y3347417D01*
Y3414063D01*
X3585558Y3430724D01*
X3552236D01*
X3535575Y3414063D01*
Y3397401D01*
X3552236Y3380740D01*
X3602220D01*
X3815185Y3906823D02*
X3798524Y3923484D01*
X3765202D01*
X3748540Y3906823D01*
Y3840177D01*
X3765202Y3823516D01*
X3798524D01*
X3815185Y3840177D01*
X3848508Y3823516D02*
X3881831D01*
X3865170D01*
Y3923484D01*
X3848508Y3906823D01*
X3931815D02*
X3948476Y3923484D01*
X3981798D01*
X3998460Y3906823D01*
Y3890161D01*
X3981798Y3873500D01*
X3998460Y3856839D01*
Y3840177D01*
X3981798Y3823516D01*
X3948476D01*
X3931815Y3840177D01*
Y3856839D01*
X3948476Y3873500D01*
X3931815Y3890161D01*
Y3906823D01*
X3948476Y3873500D02*
X3981798D01*
X5179165Y2324403D02*
X5162504Y2341064D01*
X5129182D01*
X5112520Y2324403D01*
Y2257757D01*
X5129182Y2241096D01*
X5162504D01*
X5179165Y2257757D01*
X5212488Y2241096D02*
X5245811D01*
X5229150D01*
Y2341064D01*
X5212488Y2324403D01*
X5295795Y2341064D02*
X5362440D01*
Y2324403D01*
X5295795Y2257757D01*
Y2241096D01*
X5544925Y3886503D02*
X5528264Y3903164D01*
X5494942D01*
X5478280Y3886503D01*
Y3819857D01*
X5494942Y3803196D01*
X5528264D01*
X5544925Y3819857D01*
X5578248Y3803196D02*
X5611571D01*
X5594910D01*
Y3903164D01*
X5578248Y3886503D01*
X5728200Y3903164D02*
X5694877Y3886503D01*
X5661555Y3853180D01*
Y3819857D01*
X5678216Y3803196D01*
X5711538D01*
X5728200Y3819857D01*
Y3836519D01*
X5711538Y3853180D01*
X5661555D01*
X3873605Y2828863D02*
X3856944Y2845524D01*
X3823622D01*
X3806960Y2828863D01*
Y2762217D01*
X3823622Y2745556D01*
X3856944D01*
X3873605Y2762217D01*
X3906928Y2745556D02*
X3940251D01*
X3923590D01*
Y2845524D01*
X3906928Y2828863D01*
X4056880Y2845524D02*
X3990235D01*
Y2795540D01*
X4023557Y2812201D01*
X4040218D01*
X4056880Y2795540D01*
Y2762217D01*
X4040218Y2745556D01*
X4006896D01*
X3990235Y2762217D01*
X3426565Y1267763D02*
X3409904Y1284424D01*
X3376582D01*
X3359920Y1267763D01*
Y1201117D01*
X3376582Y1184456D01*
X3409904D01*
X3426565Y1201117D01*
X3459888Y1184456D02*
X3493211D01*
X3476550D01*
Y1284424D01*
X3459888Y1267763D01*
X3593178Y1184456D02*
Y1284424D01*
X3543195Y1234440D01*
X3609840D01*
X3291945Y2418383D02*
X3275284Y2435044D01*
X3241962D01*
X3225300Y2418383D01*
Y2351737D01*
X3241962Y2335076D01*
X3275284D01*
X3291945Y2351737D01*
X3325268Y2335076D02*
X3358591D01*
X3341930D01*
Y2435044D01*
X3325268Y2418383D01*
X3475220Y2335076D02*
X3408575D01*
X3475220Y2401721D01*
Y2418383D01*
X3458558Y2435044D01*
X3425236D01*
X3408575Y2418383D01*
X2886967Y2720643D02*
X2870306Y2737304D01*
X2836983D01*
X2820322Y2720643D01*
Y2653997D01*
X2836983Y2637336D01*
X2870306D01*
X2886967Y2653997D01*
X2920290Y2637336D02*
X2953612D01*
X2936951D01*
Y2737304D01*
X2920290Y2720643D01*
X3003596Y2637336D02*
X3036918D01*
X3020257D01*
Y2737304D01*
X3003596Y2720643D01*
X2730079Y4059223D02*
X2713417Y4075884D01*
X2680095D01*
X2663434Y4059223D01*
Y3992577D01*
X2680095Y3975916D01*
X2713417D01*
X2730079Y3992577D01*
X2763401D02*
X2780063Y3975916D01*
X2813385D01*
X2830046Y3992577D01*
Y4059223D01*
X2813385Y4075884D01*
X2780063D01*
X2763401Y4059223D01*
Y4042561D01*
X2780063Y4025900D01*
X2830046D01*
X3876713Y4969123D02*
X3860052Y4985784D01*
X3826729D01*
X3810068Y4969123D01*
Y4902478D01*
X3826729Y4885816D01*
X3860052D01*
X3876713Y4902478D01*
X3910036Y4969123D02*
X3926697Y4985784D01*
X3960020D01*
X3976681Y4969123D01*
Y4952461D01*
X3960020Y4935800D01*
X3976681Y4919139D01*
Y4902478D01*
X3960020Y4885816D01*
X3926697D01*
X3910036Y4902478D01*
Y4919139D01*
X3926697Y4935800D01*
X3910036Y4952461D01*
Y4969123D01*
X3926697Y4935800D02*
X3960020D01*
X3953359Y5440983D02*
X3936697Y5457644D01*
X3903375D01*
X3886714Y5440983D01*
Y5374337D01*
X3903375Y5357676D01*
X3936697D01*
X3953359Y5374337D01*
X3986681Y5457644D02*
X4053326D01*
Y5440983D01*
X3986681Y5374337D01*
Y5357676D01*
X4954119Y5446063D02*
X4937457Y5462724D01*
X4904135D01*
X4887474Y5446063D01*
Y5379417D01*
X4904135Y5362756D01*
X4937457D01*
X4954119Y5379417D01*
X5054086Y5462724D02*
X5020764Y5446063D01*
X4987441Y5412740D01*
Y5379417D01*
X5004103Y5362756D01*
X5037425D01*
X5054086Y5379417D01*
Y5396079D01*
X5037425Y5412740D01*
X4987441D01*
X4237839Y4376723D02*
X4221177Y4393384D01*
X4187855D01*
X4171194Y4376723D01*
Y4310077D01*
X4187855Y4293416D01*
X4221177D01*
X4237839Y4310077D01*
X4337806Y4393384D02*
X4271161D01*
Y4343400D01*
X4304484Y4360061D01*
X4321145D01*
X4337806Y4343400D01*
Y4310077D01*
X4321145Y4293416D01*
X4287823D01*
X4271161Y4310077D01*
X6962138Y2923843D02*
X6945477Y2940504D01*
X6912154D01*
X6895493Y2923843D01*
Y2857197D01*
X6912154Y2840536D01*
X6945477D01*
X6962138Y2857197D01*
X7062106Y2840536D02*
X6995461D01*
X7062106Y2907181D01*
Y2923843D01*
X7045445Y2940504D01*
X7012122D01*
X6995461Y2923843D01*
X7635240Y3165143D02*
X7618579Y3181804D01*
X7585256D01*
X7568595Y3165143D01*
Y3098497D01*
X7585256Y3081836D01*
X7618579D01*
X7635240Y3098497D01*
X7668563Y3081836D02*
X7701885D01*
X7685224D01*
Y3181804D01*
X7668563Y3165143D01*
D69*
X7800020Y2164080D02*
G03*
X7800020Y2164080I-12500J0D01*
G01*
X1267260Y2535600D02*
G03*
X1267260Y2535600I-12500J0D01*
G01*
X279200Y2483700D02*
G03*
X279200Y2483700I-12500J0D01*
G01*
X281740Y3690200D02*
G03*
X281740Y3690200I-12500J0D01*
G01*
X2584300Y4373000D02*
G03*
X2584300Y4373000I-12500J0D01*
G01*
X7038847Y4929724D02*
G03*
X7038847Y4929724I-12500J0D01*
G01*
X8446940Y3004720D02*
G03*
X8446940Y3004720I-12500J0D01*
G01*
X8628180Y2554820D02*
G03*
X8628180Y2554820I-12500J0D01*
G01*
X4424300Y1358250D02*
G03*
X4424300Y1358250I-12500J0D01*
G01*
X2652300Y2810500D02*
G03*
X2652300Y2810500I-12500J0D01*
G01*
X4150100Y3448800D02*
G03*
X4150100Y3448800I-12500J0D01*
G01*
X2259200Y336400D02*
G03*
X2259200Y336400I-12500J0D01*
G01*
X3719700D02*
G03*
X3719700Y336400I-12500J0D01*
G01*
X2265600Y5708800D02*
G03*
X2265600Y5708800I-12500J0D01*
G01*
X2287776Y5080416D02*
G03*
X2287776Y5080416I-12500J0D01*
G01*
X7085701Y5556100D02*
G03*
X7085701Y5556100I-12500J0D01*
G01*
X4805300Y4833700D02*
G03*
X4805300Y4833700I-12500J0D01*
G01*
X3167300Y5708800D02*
G03*
X3167300Y5708800I-12500J0D01*
G01*
X1984200Y469900D02*
G03*
X1984200Y469900I-12500J0D01*
G01*
X6947900Y5619900D02*
G03*
X6947900Y5619900I-12500J0D01*
G01*
D70*
X2724800Y4575500D02*
G03*
X2724800Y4575500I-30000J0D01*
G01*
D71*
X7762770Y1659330D02*
Y2009830D01*
X7112270Y1659330D02*
X7762770D01*
X7112270D02*
Y2009830D01*
X7762770D01*
X1402260Y3590600D02*
X1579760D01*
X929760D02*
X1107260D01*
X1579760D02*
X1679760Y3490600D01*
Y2740600D02*
Y3490600D01*
X829760D02*
X929760Y3590600D01*
X829760Y2740600D02*
Y3490600D01*
Y2740600D02*
X1107260D01*
X1402260D02*
X1679760D01*
X616700Y1923700D02*
Y2423700D01*
X56700Y1923700D02*
X616700D01*
X56700D02*
Y2423700D01*
X616700D01*
X619240Y3130200D02*
Y3630200D01*
X59240Y3130200D02*
X619240D01*
X59240D02*
Y3630200D01*
X619240D01*
X3094800Y4475500D02*
Y4795500D01*
X2594800Y4475500D02*
Y4795500D01*
X3094800D01*
X2594800Y4475500D02*
X3094800D01*
X7220800Y5002224D02*
Y5005100D01*
Y4850100D02*
Y4852976D01*
Y4850100D02*
X7485800D01*
Y5002224D02*
Y5005100D01*
Y4850100D02*
Y4852976D01*
X7220800Y5005100D02*
X7485800D01*
X4585800Y1024825D02*
Y1189825D01*
X4405800Y1024825D02*
Y1189825D01*
X7646153Y1129073D02*
Y1370287D01*
X7817367Y1129073D02*
Y1370287D01*
X7161893Y2312233D02*
X7443107D01*
X7161893Y2493447D02*
X7443107D01*
X8484440Y2732720D02*
X8751940D01*
X8484440Y3541720D02*
X8751940D01*
X8484440Y3494720D02*
Y3541720D01*
Y2732720D02*
Y2779720D01*
X8965680Y1994820D02*
Y2494820D01*
X8405680Y1994820D02*
X8965680D01*
X8405680D02*
Y2494820D01*
X8965680D01*
X7161893Y2742367D02*
X7443107D01*
X7161893Y2561153D02*
X7443107D01*
X4081800Y1312750D02*
X4351800D01*
X4081800D02*
Y1582750D01*
X4351800D01*
Y1312750D02*
Y1582750D01*
X3745553Y1171249D02*
X3991375D01*
X3745553Y1347071D02*
X3991375D01*
X5602333Y3439993D02*
X5883547D01*
X5602333Y3621207D02*
X5883547D01*
X2589800Y3025500D02*
Y3070500D01*
X2772300Y2883000D02*
X2917300D01*
X3099800Y3025500D02*
Y3070500D01*
X2772300Y3213000D02*
X2917300D01*
X4295100Y2783800D02*
Y3413800D01*
Y2783800D02*
X4925100D01*
Y3413800D01*
X4295100D02*
X4925100D01*
X2306700Y126400D02*
Y686400D01*
Y126400D02*
X3306700D01*
Y686400D01*
X2306700D02*
X3306700D01*
X7746900Y4566200D02*
Y4864700D01*
Y4566200D02*
X8813900D01*
Y4864700D01*
X1435200Y4693200D02*
Y4991700D01*
X368200Y4693200D02*
X1435200D01*
X368200D02*
Y4991700D01*
X4954100Y1794560D02*
Y1959560D01*
X4774100Y1794560D02*
Y1959560D01*
X4853225Y4476800D02*
Y4641800D01*
X5033225Y4476800D02*
Y4641800D01*
X5258651Y4473000D02*
Y4638000D01*
X5078651Y4473000D02*
Y4638000D01*
X5575300Y5651500D02*
Y5905500D01*
X3543300Y5651500D02*
X5575300D01*
X3543300D02*
Y5905500D01*
X5575300D01*
X4243594Y4500774D02*
X4444807D01*
X4243594Y4670775D02*
X4444807D01*
X3767200Y126400D02*
Y686400D01*
Y126400D02*
X4767200D01*
Y686400D01*
X3767200D02*
X4767200D01*
X2844800Y5151600D02*
Y5211600D01*
X1693100Y5358800D02*
X2193100D01*
X1693100D02*
Y5918800D01*
X2193100D01*
Y5358800D02*
Y5918800D01*
X2080823Y5005040D02*
Y5007916D01*
Y5157164D02*
Y5160040D01*
X1815823D02*
X2080823D01*
X1815823Y5005040D02*
Y5007916D01*
Y5157164D02*
Y5160040D01*
Y5005040D02*
X2080823D01*
X7133201Y5906100D02*
X7633201D01*
Y5346100D02*
Y5906100D01*
X7133201Y5346100D02*
X7633201D01*
X7133201D02*
Y5906100D01*
X4712800Y4743700D02*
Y4776200D01*
X4680300Y4743700D02*
X4712800D01*
Y5141200D02*
Y5173700D01*
X4680300D02*
X4712800D01*
X4282800D02*
X4315300D01*
X4282800Y5141200D02*
Y5173700D01*
Y4743700D02*
Y4776200D01*
Y4743700D02*
X4315300D01*
X3094800Y5358800D02*
Y5918800D01*
X2594800D02*
X3094800D01*
X2594800Y5358800D02*
Y5918800D01*
Y5358800D02*
X3094800D01*
X7785100Y127000D02*
Y381000D01*
X5753100Y127000D02*
X7785100D01*
X5753100D02*
Y381000D01*
X7785100D01*
X911700Y119900D02*
X1911700D01*
X911700D02*
Y679900D01*
X1911700D01*
Y119900D02*
Y679900D01*
X5875400Y5269900D02*
X6875400D01*
X5875400D02*
Y5829900D01*
X6875400D01*
Y5269900D02*
Y5829900D01*
X3180913Y2573234D02*
Y2854447D01*
X3362127Y2573234D02*
Y2854447D01*
X7605593Y2676253D02*
Y2957467D01*
X7786807Y2676253D02*
Y2957467D01*
X8194180Y1243340D02*
Y1403340D01*
X8124180D02*
X8194180D01*
X8124180Y1243340D02*
X8194180D01*
X2563693Y2486874D02*
Y2768087D01*
X2744907Y2486874D02*
Y2768087D01*
X7892900Y2860840D02*
Y2980840D01*
X8032900D01*
Y2860840D02*
Y2980840D01*
D72*
X8155981Y2991573D02*
X8325981D01*
X8156515Y2830840D02*
X8326515D01*
%TF.MD5,e6ce883e0db82d9cd26f624921640640*%
M02*
